<svg xmlns="http://www.w3.org/2000/svg" width="1536" height="1024" viewBox="0 0 1536 1024" version="1.1">
	<path d="M 0.138 50.263 L 0.203 55.712 6.507 55.606 C 9.973 55.548, 12.630 55.790, 12.411 56.145 C 12.191 56.500, 12.721 57.063, 13.588 57.395 C 15.954 58.303, 16.695 58.096, 15 57 C 12.323 55.270, 17.928 55.833, 26 58.104 C 37.079 61.222, 37.241 61.462, 28.500 61.798 C 19.975 62.126, 12.150 60.555, 11.302 58.345 C 11.018 57.605, 10.133 57, 9.334 57 C 8.535 57, 8.140 57.418, 8.456 57.928 C 9.351 59.378, 5.300 60.231, 3.104 59.055 C 0.201 57.502, -0.166 57.715, 0.184 60.750 C 0.410 62.720, 1.139 63.591, 2.752 63.820 C 4.601 64.082, 4.892 64.580, 4.383 66.609 C 4.042 67.968, 4.154 68.954, 4.632 68.801 C 5.109 68.648, 6.625 69.554, 8 70.814 C 9.375 72.074, 12.898 75.206, 15.829 77.774 C 21.982 83.166, 22.953 85.136, 25.811 98.025 C 26.966 103.236, 28.562 109.638, 29.358 112.250 C 30.153 114.862, 30.576 117, 30.296 117 C 29.319 117, 23.407 111.703, 12.197 100.783 C 5.980 94.728, 0.629 90.037, 0.307 90.360 C -0.016 90.683, 1.245 92.646, 3.110 94.723 C 6.880 98.923, 26.499 117.329, 29.269 119.265 C 30.788 120.326, 31.244 123.618, 32.489 142.501 C 33.287 154.600, 34.423 171.150, 35.014 179.277 C 35.936 191.955, 35.879 194.263, 34.616 195.527 C 33.806 196.337, 32.692 197, 32.141 197 C 31.591 197, 29.232 193.544, 26.901 189.320 C 24.569 185.096, 20.704 178.466, 18.313 174.587 C 15.921 170.708, 14.192 166.941, 14.471 166.215 C 14.749 165.490, 14.556 165.156, 14.042 165.474 C 13.066 166.077, 5.830 152.628, 6.574 151.593 C 6.808 151.267, 6.680 151.245, 6.289 151.544 C 5.898 151.843, 4.345 149.706, 2.836 146.794 L 0.094 141.500 0.047 145.421 C 0.021 147.578, 0.614 150.053, 1.364 150.921 C 2.114 151.790, 4.654 156.100, 7.009 160.500 C 12.785 171.294, 14.661 174.654, 22.114 187.555 C 25.626 193.635, 28.623 199.179, 28.774 199.876 C 29.065 201.225, 22.096 197.422, 18.564 194.305 C 17.440 193.312, 15.101 191.600, 13.367 190.500 C 7.756 186.940, 4.547 184.672, 2.250 182.641 L -0 180.651 -0 183.240 C 0 185.287, 1.097 186.501, 5.250 189.045 C 8.138 190.815, 10.725 192.562, 11 192.929 C 11.275 193.296, 13.525 194.804, 16 196.280 C 22.528 200.173, 24.957 202.506, 25.245 205.156 C 25.476 207.278, 25.061 207.528, 20.871 207.800 C 18.325 207.965, 13.234 207.402, 9.559 206.550 C 1.253 204.624, 0 204.617, 0 206.500 C 0 207.325, 0.185 208, 0.412 208 C 0.639 208, 4.351 208.675, 8.662 209.500 C 12.973 210.325, 18.364 211, 20.643 211 C 23.649 211, 24.968 211.475, 25.450 212.731 C 25.816 213.683, 25.751 214.601, 25.307 214.771 C 11.124 220.197, 0.527 224.920, 0.176 225.971 C -0.149 226.946, 0.249 227.103, 1.614 226.539 C 9.254 223.381, 22.978 218.879, 25.216 218.797 C 26.758 218.741, 27.663 218.264, 27.311 217.694 C 26.969 217.141, 27.189 216.999, 27.802 217.378 C 29.376 218.350, 28.038 221.229, 26.319 220.569 C 25.473 220.244, 25.164 220.456, 25.556 221.091 C 26.243 222.202, 22.122 225.686, 20.676 225.217 C 20.222 225.071, 20.096 225.347, 20.396 225.832 C 20.871 226.601, 17.544 229.982, 6.766 239.679 C 5.237 241.055, 3.517 241.820, 2.862 241.415 C 2.082 240.933, 1.961 241.127, 2.498 241.997 C 3.002 242.812, 2.653 243.780, 1.573 244.571 C 0.619 245.268, -0.012 246.734, 0.170 247.830 C 0.434 249.425, 3.389 247.052, 15 235.920 C 27.457 223.976, 29.852 222.094, 32 222.563 C 33.375 222.864, 35.017 223.784, 35.649 224.608 C 36.281 225.432, 36.995 225.745, 37.235 225.303 C 37.476 224.861, 37.557 225.005, 37.417 225.622 C 37.276 226.239, 36.876 228.939, 36.529 231.622 C 35.243 241.544, 33.881 250.624, 33.021 255 C 30.082 269.968, 27.850 282.919, 26.473 293 C 24.911 304.440, 21.744 322.963, 17.926 343 C 16.825 348.775, 15.366 357.284, 14.682 361.910 C 13.788 367.963, 12.941 370.625, 11.661 371.410 C 10.251 372.274, 9.585 372.098, 8.441 370.559 C 7.528 369.329, 7 369.111, 7 369.964 C 7 371.936, 3.571 368.614, 1.541 364.675 L -0.096 361.500 0.460 366 C 0.766 368.475, 0.988 371.175, 0.953 372 C 0.918 372.825, 0.654 377.494, 0.368 382.375 C -0.225 392.449, 0.404 396.443, 2.459 395.654 C 3.216 395.364, 4.092 395.796, 4.406 396.615 C 4.759 397.535, 4.558 397.845, 3.881 397.427 C 3.159 396.980, 3.003 397.435, 3.424 398.760 C 4.149 401.044, 2.152 406.212, 0.854 405.410 C 0.384 405.119, 0 407.410, 0 410.500 C -0 413.590, 0.344 415.906, 0.764 415.646 C 1.184 415.386, 2.859 411.514, 4.485 407.041 L 7.442 398.908 11.740 399.204 L 16.037 399.500 24.337 418 C 28.902 428.175, 33.356 438.075, 34.235 440 C 35.114 441.925, 39.537 452.275, 44.065 463 C 48.592 473.725, 56.072 490.569, 60.686 500.430 C 65.300 510.292, 68.823 519.018, 68.515 519.822 C 68.109 520.879, 65.955 519.387, 60.727 514.427 C 52.491 506.614, 50.625 504.906, 48.792 503.500 C 42.991 499.052, 31.878 489.775, 28.429 486.500 C 21.090 479.533, 1.463 463, 0.530 463 C 0.239 463, 0 463.847, 0 464.881 C 0 465.916, 1.688 468.044, 3.750 469.610 C 8.194 472.985, 10.096 474.593, 20 483.340 C 24.125 486.984, 33.125 494.631, 40 500.334 C 55.287 513.016, 63.644 521.359, 64.254 524.547 C 64.507 525.871, 64.478 527.189, 64.190 527.476 C 63.416 528.251, 51.645 527.998, 42.500 527.010 C 1.094 522.537, 0 522.473, 0 524.500 C 0 525.534, 1.010 525.987, 3.250 525.959 C 5.038 525.937, 19.447 527.173, 35.271 528.705 L 64.041 531.491 65.030 534.995 C 65.842 537.876, 65.728 538.678, 64.385 539.500 C 63.487 540.050, 61.120 542.023, 59.126 543.884 C 57.132 545.745, 51.450 550.878, 46.500 555.290 C 41.550 559.702, 33.361 567.542, 28.302 572.712 C 22.384 578.760, 18.476 582.003, 17.342 581.806 C 14.736 581.353, 12.411 586.602, 13.703 590.025 C 14.757 592.816, 14.005 593.922, 3.266 605.385 C 1.250 607.538, 0.510 608.798, 1.607 608.210 C 2.696 607.628, 6.267 603.995, 9.544 600.137 C 14.804 593.943, 15.915 593.116, 19.054 593.062 C 22.497 593.002, 22.617 592.871, 22.850 588.908 C 22.983 586.657, 22.630 584.259, 22.065 583.579 C 21.004 582.300, 30.911 572.127, 50.384 554.500 C 64.346 541.862, 67.091 539.948, 68.804 541.661 C 69.593 542.450, 70.072 543.228, 69.869 543.389 C 69.666 543.551, 66.800 545.617, 63.500 547.980 C 60.200 550.344, 56.509 553.227, 55.297 554.389 C 54.085 555.550, 52.510 556.957, 51.797 557.516 C 51.084 558.074, 49.202 559.537, 47.615 560.766 C 46.028 561.995, 45.034 563, 45.406 563 C 46.051 563, 51.956 559.084, 53 557.963 C 55.106 555.703, 72.219 544.018, 72.851 544.408 C 73.293 544.681, 73.740 547.513, 73.846 550.702 C 73.952 553.891, 74.255 558.300, 74.519 560.500 C 75.089 565.245, 76.725 590.608, 77.550 607.500 C 77.873 614.100, 78.524 624.450, 78.997 630.500 L 79.858 641.500 77.207 644.287 C 73.223 648.474, 71.251 648.502, 62.694 644.495 C 49.818 638.465, 28.057 629.526, 8.250 622.131 C 0.408 619.203, 0 619.148, 0 621.025 C 0 622.222, 0.674 623, 1.710 623 C 3.882 623, 56.325 644.132, 65.022 648.511 C 71.497 651.772, 71.553 651.836, 72.706 657.335 L 73.868 662.875 63.180 673.687 C 57.301 679.634, 51.815 685.400, 50.987 686.500 C 46.881 691.959, 34.593 706.224, 29.074 711.938 C 25.655 715.479, 22.233 719.582, 21.471 721.055 C 20.272 723.375, 19.579 723.684, 16.293 723.359 C 12.236 722.959, 8.375 719.473, 3.156 711.500 C 0.744 707.814, 0.511 707.683, 0.189 709.832 C -0.003 711.115, 0.526 712.924, 1.366 713.851 C 2.205 714.779, 4.244 717.552, 5.897 720.013 L 8.903 724.488 6.451 725.976 C 5.103 726.794, 4 728.086, 4 728.848 C 4 729.741, 3.289 730.047, 2 729.710 C -0.383 729.087, -0.609 730.250, 1.547 732.039 C 2.783 733.065, 2.834 733.489, 1.797 734.146 C 0.965 734.674, 0.909 734.975, 1.641 734.985 C 2.268 734.993, 2.965 736.573, 3.189 738.496 C 3.506 741.208, 3.194 742.121, 1.799 742.564 C 0.809 742.878, 0 744.074, -0 745.222 C -0 747.254, 0.054 747.261, 2.022 745.480 C 3.936 743.748, 4.231 743.739, 7.556 745.325 C 9.487 746.246, 11.728 747, 12.534 747 C 14.437 747, 14.404 748.066, 11.871 768.406 C 9.574 786.845, 8.811 790, 6.647 790 C 5.876 790, 4.668 790.695, 3.962 791.546 C 3.257 792.396, 2.077 792.860, 1.340 792.577 C 0.298 792.177, 0 793.633, 0 799.121 C 0 805.213, 0.308 806.439, 2.250 808.073 C 3.488 809.115, 6.188 810.257, 8.250 810.611 C 10.968 811.078, 12 811.755, 12 813.069 C 12 814.066, 11.550 815.160, 11 815.500 C 10.450 815.840, 10.007 816.654, 10.015 817.309 C 10.026 818.106, 10.315 818.051, 10.890 817.143 C 12.099 815.236, 12.648 816.607, 13.437 823.500 C 13.815 826.800, 15.236 837.150, 16.595 846.500 C 17.953 855.850, 19.277 865.157, 19.536 867.181 L 20.006 870.863 11.753 867.810 C 0.955 863.817, -0 863.573, -0 864.812 C -0 865.802, 5.666 868.215, 14.500 870.987 C 19.580 872.581, 20.164 873.153, 20.610 876.986 C 20.934 879.769, 20.741 880.053, 18.916 879.473 C 16.927 878.842, 16.933 878.908, 19.109 881.410 C 20.414 882.911, 22.441 884.013, 23.930 884.032 C 25.344 884.049, 27.258 884.640, 28.184 885.344 C 30.131 886.824, 31.720 892, 30.226 892 C 28.440 892, 0 908.182, 0 909.199 C 0 909.744, 1.912 909.077, 4.250 907.716 C 6.588 906.355, 13.738 902.473, 20.141 899.090 L 31.781 892.939 35.641 895.155 C 45.962 901.084, 61.467 915.620, 60.409 918.377 C 60.062 919.280, 58.122 920.101, 55.661 920.387 C 53.373 920.652, 47 921.371, 41.500 921.983 C 36 922.596, 27 923.744, 21.500 924.536 C 16 925.327, 8.912 926.238, 5.750 926.559 C 2.588 926.881, -0 927.484, -0 927.899 C -0 928.314, 1.237 928.516, 2.750 928.347 C 33.326 924.942, 44.217 923.916, 45.701 924.301 C 46.976 924.632, 46.768 924.802, 44.989 924.884 C 43.609 924.948, 36.634 926.358, 29.489 928.017 C 22.345 929.677, 12.788 931.814, 8.251 932.767 C 3.714 933.720, 0.002 934.837, 0.001 935.250 C -0.001 936.557, 2.889 936.096, 19.898 932.077 C 40.610 927.182, 48.464 925.655, 50.107 926.202 C 50.812 926.437, 44.665 928.117, 36.445 929.934 C 28.225 931.751, 18.800 933.861, 15.500 934.622 C 12.200 935.383, 7.567 936.400, 5.204 936.882 C 0.280 937.887, -1.420 939, 1.970 939 C 4.027 939, 34.739 932.202, 49 928.589 C 58.311 926.231, 60.391 926.074, 62.441 927.577 C 66.819 930.786, 72.630 928.292, 73.227 922.947 C 73.377 921.601, 73.950 920.026, 74.500 919.447 C 75.371 918.530, 85.174 910.845, 95.483 903 C 98.700 900.551, 111.621 889.598, 119.451 882.681 C 122.700 879.811, 123.969 879.283, 126.597 879.709 C 129.296 880.147, 129.917 879.861, 130.595 877.864 C 131.035 876.564, 131.327 875.221, 131.242 874.881 C 130.791 873.076, 160.693 846.537, 164.150 845.674 C 166.795 845.013, 169.633 839.834, 168.423 837.876 C 168.119 837.384, 168.961 834.173, 170.293 830.741 C 171.626 827.308, 174.422 820.104, 176.508 814.730 C 178.866 808.657, 181.499 803.739, 183.469 801.730 C 190.019 795.051, 213 776.989, 213 778.520 C 213 778.932, 209.047 784.170, 200.500 795.081 C 198.850 797.187, 195.475 801.665, 193 805.031 C 190.525 808.398, 186.102 814.155, 183.170 817.826 C 173.942 829.382, 169 836.182, 169 837.324 C 169 838.672, 171.062 836.663, 174.195 832.263 C 176.346 829.243, 189.680 811.863, 207.771 788.500 C 214.535 779.765, 215.852 778.539, 218.190 778.810 C 221.296 779.170, 223.521 776.099, 222.628 772.685 C 222.324 771.524, 222.686 769.882, 223.433 769.037 C 224.179 768.192, 229.137 758.950, 234.450 748.500 C 242.998 731.688, 247.820 723.168, 264.409 695.559 C 266.790 691.596, 269.849 687.918, 271.540 686.985 C 273.692 685.798, 274.585 684.486, 274.813 682.176 C 275.001 680.278, 274.667 679, 273.984 679 C 272.674 679, 272.725 678.705, 277.581 658 C 279.452 650.025, 282.086 638.775, 283.435 633 C 284.784 627.225, 286.386 619.575, 286.996 616 C 288.535 606.969, 288.903 606.004, 290.817 605.968 C 296.343 605.864, 298.067 597.771, 293.353 594.063 C 290.338 591.692, 290.324 594.852, 293.554 551.500 C 296.303 514.610, 295.861 516.957, 300.500 514.557 C 303.555 512.977, 304.840 511.506, 305.940 508.329 C 307.243 504.565, 307.208 503.789, 305.577 500.172 C 303.760 496.142, 301.896 495.040, 296.851 495.014 C 294.310 495.001, 294.175 494.720, 293.506 488.059 C 293.123 484.242, 293.062 480.708, 293.372 480.207 C 293.682 479.706, 293.981 469.008, 294.038 456.434 L 294.141 433.571 298.070 430.208 C 300.899 427.787, 302 426.063, 302 424.057 C 302 420.043, 298.674 416.201, 295.500 416.549 C 291.816 416.954, 290.812 414.895, 284.987 395 C 282.169 385.375, 277.356 369.625, 274.292 360 C 271.228 350.375, 267.476 337.775, 265.954 332 C 263.559 322.915, 263.376 321.287, 264.593 319.921 C 265.367 319.053, 266 316.764, 266 314.835 C 266 312.003, 265.223 310.630, 261.964 307.705 C 259.744 305.712, 257.606 304.097, 257.214 304.116 C 256.609 304.145, 252.563 290.811, 241.933 253.763 C 239.671 245.878, 239.551 244.206, 241.250 244.269 C 249.366 244.570, 254.904 237.511, 253.563 228.571 C 252.706 222.856, 247.645 218, 242.547 218 C 240.686 218, 238.378 217.699, 237.418 217.330 C 236.227 216.873, 235.902 217.032, 236.395 217.830 C 236.855 218.574, 236.390 219, 235.118 219 C 234.018 219, 232.797 219.520, 232.405 220.155 C 231.932 220.918, 232.134 221.035, 233 220.500 C 233.866 219.965, 234.068 220.082, 233.595 220.845 C 233.203 221.480, 232.648 222, 232.363 222 C 231.384 222, 224.007 213.596, 223.452 211.849 C 223.129 210.830, 222.294 210.334, 221.449 210.658 C 219.984 211.220, 219.363 209.523, 220.750 208.747 C 221.162 208.517, 220.944 208.462, 220.265 208.627 C 218.695 209.007, 216.676 205.333, 217.618 203.809 C 218.094 203.039, 217.762 202.877, 216.612 203.319 C 215.545 203.728, 215.140 203.583, 215.540 202.935 C 216.088 202.048, 206.389 188.312, 199.361 180.023 C 198.185 178.635, 195.323 175.278, 193.001 172.561 C 186.803 165.312, 184.076 160.846, 183.689 157.314 C 183.187 152.728, 180.584 149.367, 176.976 148.645 C 174.836 148.217, 171.992 146.030, 168.158 141.863 C 159.201 132.126, 153.437 126.944, 147.767 123.528 C 142.616 120.426, 142.507 120.264, 142.835 116.186 C 143.120 112.647, 142.715 111.561, 140.162 109.008 C 136.751 105.597, 135.647 105.414, 130.772 107.451 L 127.300 108.901 121.788 103.701 C 118.756 100.840, 114.076 96.642, 111.388 94.371 C 101.332 85.876, 87.871 72.198, 88.925 71.546 C 90.397 70.637, 90.222 66.876, 88.608 64.750 C 87.006 62.640, 80.758 62.381, 79.119 64.357 C 77.562 66.233, 69.905 65.729, 62.482 63.262 C 59.173 62.161, 54.898 60.940, 52.982 60.548 C 51.067 60.156, 45.899 58.534, 41.499 56.944 C 37.098 55.353, 29.848 53.360, 25.389 52.514 C 18.510 51.209, 8.431 48.219, 1.787 45.512 C 0.289 44.902, 0.081 45.500, 0.138 50.263 M 21.640 66.121 C 21.014 69.333, 21.271 73, 22.121 73 C 22.501 73, 22.591 73.849, 22.319 74.887 C 22.048 75.925, 22.310 77.073, 22.901 77.439 C 23.585 77.861, 23.757 77.447, 23.375 76.302 C 23.012 75.217, 23.731 75.639, 25.184 77.365 C 28.762 81.616, 33.677 81.264, 50 75.587 C 63.896 70.755, 68.260 68.532, 61.969 69.491 C 60.061 69.782, 59.161 69.720, 59.969 69.353 C 63.198 67.889, 48.480 64.882, 35.301 64.313 L 22.103 63.743 21.640 66.121 M 56.302 75.438 C 49.248 77.750, 42.356 80.359, 40.988 81.235 C 39.620 82.111, 36.588 83.387, 34.250 84.072 C 31.913 84.756, 30 85.506, 30 85.737 C 30 86.127, 41.769 100.888, 42.966 102 C 43.263 102.275, 45.343 104.975, 47.589 108 C 69.586 137.622, 75.403 145, 76.761 145 C 77.755 145, 78.576 131.076, 79.620 96.500 L 80.255 75.500 74.691 73.367 L 69.128 71.234 56.302 75.438 M 82.150 83.819 C 81.957 96.252, 80.861 134.053, 80.528 139.750 C 80.359 142.637, 80.559 145, 80.974 145 C 81.679 145, 87 134.037, 87 132.583 C 87 131.871, 92.972 118.783, 93.616 118.083 C 93.827 117.854, 94.261 117.928, 94.580 118.247 C 94.899 118.566, 94.455 119.902, 93.594 121.217 C 92.732 122.531, 91.121 126.283, 90.013 129.553 C 87.836 135.979, 86.788 138.460, 83.807 144.246 C 82.745 146.306, 82.101 148.354, 82.374 148.796 C 82.648 149.239, 84.813 149.704, 87.186 149.830 C 89.559 149.956, 96.225 150.495, 102 151.029 C 107.775 151.562, 115.236 151.999, 118.581 151.999 C 124.209 152, 124.766 151.795, 126.062 149.250 C 126.832 147.738, 128.456 144.925, 129.670 143 C 130.885 141.075, 132.181 138.257, 132.551 136.737 C 132.921 135.218, 133.782 133.643, 134.465 133.237 C 137.751 131.286, 135.706 124.645, 131.494 123.588 C 130.234 123.272, 128.214 120.973, 126.615 118.033 C 123.852 112.957, 105.434 92.402, 99 87.213 C 97.075 85.661, 92.523 82.534, 88.884 80.265 L 82.269 76.139 82.150 83.819 M 27.035 88.691 C 27.075 90.730, 28.734 98.237, 32.075 111.500 C 33.584 117.488, 35.007 120.973, 36.326 121.915 C 38.134 123.205, 45.538 129.533, 61.410 143.354 C 64.660 146.184, 68.485 149.512, 69.910 150.749 C 73.158 153.569, 74.328 153.610, 73.460 150.875 C 73.006 149.445, 73.148 148.973, 73.893 149.434 C 77.005 151.357, 74.033 146.753, 62.959 132.500 C 58.259 126.450, 52.866 119.250, 50.974 116.500 C 49.082 113.750, 45.244 108.800, 42.445 105.500 C 39.647 102.200, 35.486 96.945, 33.201 93.823 C 28.453 87.338, 26.985 86.116, 27.035 88.691 M 34.220 123.512 C 34.552 124.069, 35.088 129.019, 35.411 134.512 C 36.821 158.502, 38.989 190.742, 39.297 192.321 C 39.640 194.075, 42.376 197, 43.674 197 C 45.350 197, 51.548 187.867, 51.138 186 C 50.958 185.175, 51.144 184.829, 51.553 185.232 C 51.962 185.634, 53.183 184.959, 54.265 183.732 C 56.985 180.647, 65.623 167.131, 68.154 162 C 68.832 160.625, 70.082 158.671, 70.932 157.658 C 72.360 155.955, 72.213 155.590, 68.989 152.827 C 67.070 151.183, 62.858 147.512, 59.628 144.669 C 52.675 138.549, 53.287 139.081, 44.476 131.491 C 35.967 124.161, 33.429 122.187, 34.220 123.512 M 142.728 133.342 C 147.563 141.218, 155.190 152.419, 157.306 154.750 C 158.429 155.988, 160.218 157, 161.281 157 C 162.565 157, 163.026 157.490, 162.654 158.459 C 162.226 159.575, 163.001 159.446, 165.942 157.913 C 168.059 156.810, 170.012 155.062, 170.282 154.030 C 171.087 150.951, 157.650 139.303, 143.903 131.163 L 139.956 128.826 142.728 133.342 M 137.392 134.579 C 138.348 137.071, 136.960 141.198, 135.371 140.589 C 134.147 140.119, 129 146.633, 129 148.651 C 129 149.032, 128.311 150.104, 127.468 151.035 C 126.053 152.599, 126.377 152.812, 131.718 153.845 C 134.898 154.460, 140.200 155.229, 143.500 155.555 C 146.800 155.881, 150.714 156.296, 152.197 156.478 L 154.894 156.809 150.075 149.154 C 141.363 135.318, 139.661 133, 138.215 133 C 137.324 133, 137.014 133.594, 137.392 134.579 M 81 152.992 C 81 153.708, 82.676 156.339, 84.724 158.839 C 88.284 163.183, 96 174.587, 96 175.505 C 96 175.745, 97.454 178.005, 99.232 180.526 C 102.461 185.108, 102.464 185.109, 103.317 182.549 C 103.787 181.140, 104.582 180.242, 105.085 180.553 C 105.588 180.864, 106.004 180.079, 106.010 178.809 C 106.015 177.539, 107.583 174.533, 109.494 172.129 C 111.405 169.725, 112.724 167.363, 112.426 166.879 C 111.632 165.595, 96.400 158.545, 90 156.500 C 86.975 155.534, 83.713 154.056, 82.750 153.217 C 81.428 152.063, 81 152.008, 81 152.992 M 87.500 153.554 C 89.700 154.450, 92.400 155.546, 93.500 155.989 C 94.600 156.431, 98.200 158.024, 101.500 159.527 C 114.743 165.563, 113.952 165.392, 116.714 162.813 C 118.076 161.541, 119.823 159.283, 120.597 157.796 C 121.975 155.148, 121.936 155.081, 118.752 154.598 C 116.963 154.326, 111.049 153.842, 105.608 153.522 C 100.168 153.202, 92.968 152.711, 89.608 152.432 L 83.500 151.924 87.500 153.554 M 123.476 157.677 C 121.600 160.541, 121.559 160.261, 124.486 164.574 C 125.853 166.589, 126.695 168.684, 126.358 169.230 C 126.020 169.777, 126.148 170.511, 126.642 170.862 C 127.136 171.213, 128.084 172.738, 128.749 174.250 C 129.413 175.762, 130.685 177, 131.575 177 C 133.328 177, 153.862 166.499, 155.500 164.764 C 156.194 164.030, 155.887 163.908, 154.500 164.366 C 152.693 164.963, 152.714 164.856, 154.724 163.263 C 157.513 161.052, 156.524 159.552, 152 159.131 C 150.075 158.952, 143.202 158.044, 136.726 157.114 L 124.952 155.424 123.476 157.677 M 74.017 158.695 C 72.728 160.178, 69.923 164.340, 67.784 167.945 C 63.251 175.583, 58.241 183.284, 52.173 191.943 C 47.973 197.936, 47.894 198.189, 49.481 200.612 C 51.476 203.657, 53.752 204.648, 55.267 203.133 C 55.890 202.510, 57.207 202, 58.193 202 C 59.179 202, 66.401 199.513, 74.243 196.474 C 82.084 193.435, 90.975 189.989, 94 188.818 C 97.025 187.646, 99.650 186.570, 99.834 186.427 C 100.243 186.107, 83.819 161.375, 81.121 158.250 C 78.579 155.304, 76.873 155.411, 74.017 158.695 M 168.024 160.124 C 165.982 160.931, 165.807 161.276, 167.024 162.090 C 170.976 164.734, 175.652 166.672, 177 166.224 C 177.825 165.950, 178.161 166.089, 177.746 166.533 C 177.332 166.977, 177.658 168.355, 178.471 169.595 C 179.398 171.011, 179.560 171.980, 178.904 172.199 C 178.181 172.440, 178.208 177.152, 178.992 187.523 C 180.787 211.252, 182.889 233.011, 183.478 233.965 C 184.053 234.894, 193.719 231.947, 198.110 229.504 C 199.545 228.706, 201.008 228.341, 201.360 228.693 C 201.712 229.045, 202 228.871, 202 228.305 C 202 227.023, 191.623 191.570, 188.948 183.716 C 187.865 180.534, 186.791 176.484, 186.561 174.716 C 185.957 170.071, 184.981 168, 183.393 168 C 182.627 168, 182.053 167.662, 182.118 167.250 C 182.531 164.639, 181.850 163.120, 180.500 163.638 C 179.675 163.955, 179 163.705, 179 163.082 C 179 162.010, 176.988 160.965, 172.500 159.706 C 171.400 159.398, 169.386 159.586, 168.024 160.124 M 162.500 164 C 162.840 164.550, 162.682 165, 162.150 165 C 161.041 165, 161.475 166.714, 169.495 194 C 181.442 234.645, 180.846 232.839, 180.926 228.670 C 180.967 226.564, 180.570 220.714, 180.043 215.670 C 179.517 210.627, 178.609 200.200, 178.025 192.500 C 176.183 168.197, 176.451 169.242, 171.198 165.911 C 166.807 163.126, 161.198 161.894, 162.500 164 M 152 169.666 C 131.745 180.873, 131.283 181.183, 129.627 184.655 L 127.979 188.112 131.192 190.806 C 132.960 192.288, 134.798 193.376, 135.277 193.225 C 135.756 193.074, 135.885 193.378, 135.562 193.900 C 134.869 195.021, 149.664 208.627, 151.139 208.225 C 151.694 208.074, 151.888 208.372, 151.570 208.887 C 150.794 210.142, 166.024 224.103, 167.305 223.311 C 167.857 222.970, 168.023 223.153, 167.674 223.719 C 167.130 224.599, 176.992 235, 178.370 235 C 178.945 235, 173.690 215.078, 170.996 207.046 C 169.973 203.996, 167.963 197, 166.530 191.500 C 165.096 186, 163.547 180.600, 163.087 179.500 C 162.626 178.400, 161.495 174.912, 160.574 171.750 C 159.652 168.588, 158.808 166.016, 158.699 166.035 C 158.590 166.054, 155.575 167.688, 152 169.666 M 188.472 175.954 C 188.796 176.479, 190.871 183.117, 193.083 190.704 C 195.295 198.292, 198.716 209.544, 200.686 215.708 L 204.266 226.916 207.883 225.349 C 209.872 224.488, 212.400 223.533, 213.500 223.229 C 214.600 222.924, 216.512 221.600, 217.750 220.286 C 218.988 218.972, 220 218.284, 220 218.757 C 220 220.491, 217.392 222.792, 213 224.935 C 210.525 226.142, 207.649 227.759, 206.610 228.528 C 204.565 230.040, 204.502 229.544, 208.662 244.643 L 210.080 249.786 217.983 245.706 C 222.330 243.461, 225.617 241.190, 225.289 240.658 C 224.960 240.126, 225.174 239.990, 225.765 240.355 C 227.329 241.321, 230.024 238.225, 229.288 236.307 C 228.831 235.118, 229.026 234.898, 230 235.500 C 230.992 236.113, 231.166 235.874, 230.670 234.582 C 230.301 233.622, 230 232.397, 230 231.859 C 230 231.322, 229.625 231.114, 229.167 231.397 C 228.708 231.680, 228.328 230.694, 228.321 229.206 C 228.309 226.652, 220.120 213.944, 214.718 208.099 C 213.498 206.779, 212.644 205.514, 212.820 205.289 C 212.996 205.064, 211.178 202.545, 208.780 199.690 C 205.028 195.223, 195.516 182.938, 191.128 176.891 C 189.755 174.999, 187.359 174.154, 188.472 175.954 M 109.333 189.424 C 109.937 191, 109.814 191.091, 108.523 190.019 C 106.142 188.043, 106.680 189.374, 111.133 196.476 C 113.406 200.101, 115.042 203.291, 114.768 203.565 C 114.495 203.839, 113.502 202.889, 112.562 201.454 C 110.855 198.850, 108.351 195.753, 104.413 191.378 L 102.325 189.059 92.913 192.409 C 87.736 194.251, 81.025 196.758, 78 197.980 C 71.886 200.449, 54.017 207, 53.397 207 C 53.178 207, 53 208.945, 53 211.322 C 53 215.206, 53.381 215.899, 56.750 218.147 C 65.350 223.884, 75.048 230.707, 83.590 237.030 C 88.589 240.730, 93.764 244.330, 95.090 245.029 C 97.063 246.070, 117.266 262.069, 119 263.965 C 119.275 264.265, 121.188 265.769, 123.250 267.307 C 127.843 270.730, 127.880 270.492, 124.967 256.360 C 119.940 231.970, 116.928 211.020, 116.983 200.822 C 117.025 192.992, 116.834 192.082, 115.024 191.508 C 113.921 191.157, 112.494 191.194, 111.854 191.590 C 111.215 191.985, 110.938 191.902, 111.241 191.405 C 111.543 190.907, 111.077 189.840, 110.205 189.033 C 108.794 187.727, 108.698 187.770, 109.333 189.424 M 125.461 190.937 C 125.906 191.658, 125.663 192.060, 124.850 191.948 C 119.370 191.196, 119 191.631, 119 198.833 C 119 202.592, 119.233 205.899, 119.517 206.184 C 119.802 206.469, 120.224 210.706, 120.455 215.601 C 120.883 224.674, 123.323 240.461, 127.105 258.642 C 129.081 268.142, 129.323 268.681, 130.913 267.142 C 132.029 266.062, 132.249 265.249, 131.555 264.765 C 130.975 264.361, 131.625 264.022, 133 264.011 C 134.375 264.001, 137.737 263.190, 140.471 262.209 C 146.239 260.140, 146.128 260.441, 147.956 241.906 C 149.153 229.762, 148.571 226.082, 145.014 223.332 C 144.183 222.689, 143.840 221.827, 144.252 221.415 C 144.663 221.003, 145 221.192, 145 221.833 C 145 222.475, 145.675 223, 146.500 223 C 147.325 223, 148 223.408, 148 223.906 C 148 224.405, 148.787 224.611, 149.750 224.363 C 150.803 224.093, 152.025 224.766, 152.818 226.053 C 153.929 227.855, 153.898 228.455, 152.625 229.862 C 150.981 231.679, 149.508 239.736, 148.414 252.897 C 147.597 262.730, 146.766 262.795, 159.299 252.046 C 164.139 247.896, 169.616 243.337, 171.471 241.914 C 174.664 239.467, 174.744 239.257, 172.975 237.982 C 171.948 237.242, 171.353 236.238, 171.653 235.753 C 171.953 235.267, 173.119 235.687, 174.245 236.685 C 178.736 240.669, 174.262 234.567, 169.343 230 C 166.677 227.525, 158.197 219.626, 150.498 212.446 C 142.799 205.267, 134.328 197.392, 131.673 194.946 C 126.813 190.469, 124.083 188.707, 125.461 190.937 M 49.637 219.848 C 48.114 221.532, 48.444 222.502, 54.714 234.754 C 58.403 241.961, 61.845 247.596, 62.365 247.275 C 62.884 246.954, 63.034 247.135, 62.699 247.679 C 62.147 248.572, 68.769 262.499, 75.214 274 C 78.202 279.332, 88.462 298.808, 91.282 304.500 C 92.372 306.700, 93.598 308.725, 94.006 309 C 94.415 309.275, 95.065 310.957, 95.451 312.739 C 96.139 315.910, 98 318.256, 98 315.952 C 98 315.281, 98.698 315.054, 99.645 315.417 C 101.561 316.152, 105.257 313.224, 104.322 311.712 C 103.957 311.122, 104.185 310.996, 104.862 311.415 C 105.538 311.833, 107.607 310.688, 109.766 308.701 C 123.906 295.686, 128 291.556, 128 290.305 C 128 289.522, 128.450 289.160, 129 289.500 C 129.550 289.840, 130 289.390, 130 288.500 C 130 287.532, 129.536 287.168, 128.845 287.595 C 128.199 287.995, 127.960 287.874, 128.303 287.320 C 129.010 286.174, 127.003 279, 125.975 279 C 125.595 279, 121.958 282.699, 117.892 287.220 C 108.258 297.933, 103 303.206, 103 302.153 C 103 301.688, 104.608 299.651, 106.573 297.627 C 108.539 295.604, 113.709 289.662, 118.064 284.424 C 125.890 275.008, 125.961 274.871, 124.342 272.399 C 123.402 270.965, 122.106 270.129, 121.300 270.438 C 120.528 270.735, 120.146 270.572, 120.452 270.077 C 121.117 269.002, 104.735 255.958, 82 239.460 C 58.191 222.182, 54.336 219.674, 52.928 220.545 C 52.160 221.019, 51.946 220.897, 52.362 220.224 C 53.553 218.296, 51.320 217.989, 49.637 219.848 M 41.250 224.662 C 40.563 224.940, 39.993 226.592, 39.985 228.333 C 39.968 232.036, 35.284 263.731, 34.588 264.858 C 34.328 265.278, 32.959 273.245, 31.545 282.561 C 30.132 291.878, 28.313 303.100, 27.504 307.500 C 26.696 311.900, 25.144 320.675, 24.056 327 C 22.298 337.224, 21.075 343.928, 19.498 352 C 18.794 355.598, 17 370.127, 17 372.224 C 17 373.201, 17.477 374, 18.059 374 C 18.641 374, 18.840 373.550, 18.500 373 C 18.160 372.450, 18.359 372, 18.941 372 C 19.523 372, 20 372.687, 20 373.526 C 20 374.873, 20.322 374.883, 22.750 373.611 C 24.263 372.818, 26.494 371.232, 27.708 370.085 C 28.923 368.938, 30.135 368, 30.403 368 C 30.670 368, 36.350 363.837, 43.024 358.750 C 49.698 353.663, 57.935 347.572, 61.329 345.216 C 64.723 342.860, 67.456 340.385, 67.403 339.716 C 67.349 339.047, 68.270 338.441, 69.448 338.369 C 71.457 338.245, 86.719 328.657, 88.157 326.615 C 88.519 326.101, 88.581 325.072, 88.296 324.328 C 88.010 323.584, 88.284 322.362, 88.905 321.614 C 89.526 320.866, 89.759 319.409, 89.423 318.377 C 88.924 316.847, 89.006 316.775, 89.864 317.992 C 90.702 319.180, 91.170 319.230, 92.158 318.242 C 93.147 317.253, 93.105 316.997, 91.950 316.985 C 90.735 316.972, 90.724 316.827, 91.881 316.094 C 93.330 315.177, 92.818 314.127, 65.003 261 C 58.812 249.175, 51.992 236.012, 49.847 231.750 C 46.039 224.181, 44.857 223.207, 41.250 224.662 M 195.874 232.596 C 193.468 233.840, 189.782 235.160, 187.681 235.528 C 184.866 236.023, 184.012 236.589, 184.431 237.681 C 184.744 238.497, 185 239.537, 185 239.994 C 185 240.450, 186.224 240.690, 187.719 240.525 C 189.215 240.361, 191.353 240.597, 192.469 241.050 C 194.235 241.766, 194.108 241.897, 191.500 242.052 C 189.850 242.150, 187.713 242.150, 186.750 242.052 C 184.071 241.780, 184.643 244.247, 188.624 250.138 C 194.485 258.811, 193.907 258.580, 200.913 255.044 C 204.311 253.329, 207.323 251.323, 207.605 250.586 C 207.888 249.850, 207.395 246.379, 206.510 242.874 C 202.946 228.754, 203.070 228.873, 195.874 232.596 M 227 243.446 C 223.975 245.248, 219.307 247.961, 216.626 249.475 C 213.388 251.305, 212.168 252.486, 212.990 252.994 C 213.949 253.586, 213.920 253.880, 212.863 254.300 C 211.796 254.724, 211.785 254.859, 212.809 254.921 C 213.529 254.964, 213.864 255.412, 213.553 255.915 C 212.633 257.403, 223.964 271.385, 239.149 287.500 C 242.258 290.800, 246.686 295.899, 248.988 298.830 C 251.290 301.762, 253.387 303.946, 253.649 303.684 C 254.168 303.165, 246.069 274.218, 240.371 256.230 C 237.470 247.073, 236.304 244.670, 234.150 243.416 C 232.693 242.567, 232.351 242.137, 233.391 242.459 C 234.991 242.955, 235.088 242.811, 234.019 241.523 C 233.324 240.685, 232.698 240.038, 232.628 240.085 C 232.557 240.132, 230.025 241.645, 227 243.446 M 162.367 252.237 L 150.234 262.296 154.789 265.773 C 159.038 269.016, 159.431 269.131, 160.640 267.477 C 161.353 266.503, 161.653 265.209, 161.308 264.603 C 160.962 263.996, 161.037 263.823, 161.474 264.218 C 162.422 265.074, 166.950 259.360, 174.350 247.967 C 176.440 244.750, 176.841 241.865, 175.167 242.089 C 174.800 242.139, 169.040 246.705, 162.367 252.237 M 172.046 257.223 C 167.954 263.426, 163.738 269.490, 162.677 270.699 C 161.615 271.909, 161.007 273.576, 161.325 274.405 C 161.787 275.608, 164.678 274.489, 175.702 268.843 C 183.291 264.955, 189.614 261.675, 189.752 261.552 C 190.325 261.046, 183.770 249, 182.922 249 C 182.415 249, 182.113 248.464, 182.250 247.809 C 182.387 247.155, 181.822 246.468, 180.993 246.283 C 180.008 246.063, 176.906 249.856, 172.046 257.223 M 202 256.890 C 197.448 259.211, 196.547 260.099, 196.773 262.043 C 196.923 263.335, 200.933 270.716, 205.684 278.446 C 210.435 286.176, 215.443 294.525, 216.813 297 C 218.184 299.475, 222.169 306.049, 225.670 311.608 C 231.243 320.457, 232.330 321.660, 234.400 321.264 C 235.893 320.978, 236.676 320.202, 236.525 319.156 C 236.394 318.245, 236.480 318.063, 236.717 318.750 C 237.287 320.409, 240.069 320.326, 246.492 318.459 C 250.938 317.167, 251.709 316.603, 251.279 314.959 C 250.997 313.882, 251.258 313, 251.859 313 C 252.626 313, 252.652 312.214, 251.943 310.351 C 251.060 308.029, 251.125 307.859, 252.468 308.974 C 256.216 312.084, 252.026 305.840, 242.500 294.120 C 238.708 289.454, 224.483 273.709, 217.815 266.797 C 213.960 262.801, 210.857 258.625, 210.485 256.934 C 209.698 253.347, 208.956 253.343, 202 256.890 M 193 263.340 C 193 264.077, 194.407 268.689, 196.127 273.590 C 203.287 293.995, 212 319.259, 212 319.617 C 212 319.827, 212.983 320, 214.186 320 C 215.388 320, 217.407 320.973, 218.673 322.162 C 220.766 324.129, 221.337 324.216, 224.987 323.122 C 227.194 322.461, 229 321.691, 229 321.412 C 229 321.132, 227.425 318.442, 225.500 315.433 C 223.575 312.423, 222 309.754, 222 309.500 C 222 309.246, 220.425 306.577, 218.500 303.567 C 216.575 300.558, 215 297.875, 215 297.606 C 215 297.049, 206.843 283.768, 206.030 283 C 205.456 282.458, 204.847 281.420, 198.257 269.750 C 193.838 261.924, 193 260.902, 193 263.340 M 176.642 271.027 C 160.937 279.590, 160.575 279.856, 160.194 283.133 C 159.850 286.088, 164.322 290.474, 166.734 289.549 C 167.487 289.259, 167.840 289.449, 167.519 289.970 C 167.197 290.491, 171.434 293.904, 176.935 297.555 C 182.436 301.205, 188.864 305.858, 191.218 307.894 C 198.810 314.459, 207.592 321, 208.812 321 C 210.417 321, 210.333 320.347, 207.913 313.986 C 205.450 307.512, 200.899 294.413, 194.975 276.750 C 192.624 269.738, 190.429 264.004, 190.100 264.009 C 189.770 264.013, 183.714 267.172, 176.642 271.027 M 156.405 290.155 C 155.962 290.870, 156.130 291.038, 156.845 290.595 C 157.480 290.203, 158 290.407, 158 291.048 C 158 291.689, 157.320 291.953, 156.488 291.634 C 155.657 291.315, 153.519 291.869, 151.738 292.865 L 148.500 294.675 148.714 322.376 C 148.832 337.611, 149.210 350.531, 149.553 351.086 C 149.958 351.741, 150.764 351.651, 151.839 350.832 C 152.753 350.135, 153.159 349.967, 152.742 350.458 C 151.689 351.697, 156.938 354.961, 158.822 354.238 C 159.666 353.914, 164.439 351.049, 169.429 347.871 C 180.423 340.868, 193.669 333.136, 200.679 329.629 C 203.528 328.204, 206.162 326.546, 206.534 325.945 C 207.449 324.465, 204.060 321.002, 194.319 313.462 C 184.437 305.814, 159.570 289, 158.142 289 C 157.579 289, 156.797 289.520, 156.405 290.155 M 125.769 297.761 C 121.771 301.497, 114.770 307.867, 110.210 311.918 L 101.920 319.284 106.960 322.162 C 109.732 323.745, 112 325.533, 112 326.135 C 112 326.788, 111.004 326.577, 109.535 325.615 C 107.134 324.042, 104 323.441, 104 324.554 C 104 325.695, 109.896 331.144, 122.964 342.080 C 136.559 353.457, 140.528 355.479, 143.124 352.351 C 143.730 351.620, 144.634 351.274, 145.132 351.581 C 146.077 352.166, 145.599 345.778, 144.573 344.119 C 144.251 343.597, 144.504 342.999, 145.135 342.788 C 146.824 342.225, 144.986 303.405, 143.286 303.738 C 142.537 303.885, 142.315 303.343, 142.706 302.324 C 143.097 301.304, 142.939 300.920, 142.292 301.320 C 141.684 301.695, 140.987 300.686, 140.633 298.917 C 140.298 297.240, 139.599 296.130, 139.081 296.450 C 138.562 296.770, 137.813 296.506, 137.415 295.862 C 136.963 295.131, 137.124 294.959, 137.845 295.405 C 138.480 295.797, 139 295.653, 139 295.085 C 139 294.516, 137.659 293.358, 136.019 292.510 L 133.039 290.969 125.769 297.761 M 245.898 321.378 C 241.162 322.327, 240.341 322.809, 240.585 324.500 C 240.844 326.299, 240.750 326.334, 239.648 324.848 C 238.809 323.717, 237.539 323.365, 235.620 323.732 C 234.078 324.027, 233.195 324.545, 233.658 324.884 C 235.770 326.429, 239.268 333.695, 238.708 335.375 C 238.512 335.965, 236.768 333.760, 234.834 330.474 C 231.095 324.121, 231.213 324.167, 223.720 326.112 C 221.641 326.652, 220.155 327.442, 220.419 327.868 C 220.682 328.295, 220.251 329.890, 219.460 331.414 C 218.168 333.905, 218.268 335.156, 220.458 343.842 C 221.797 349.154, 223.534 355.750, 224.317 358.500 C 225.100 361.250, 226.960 367.775, 228.449 373 C 229.939 378.225, 231.538 384.018, 232.001 385.872 C 233.024 389.962, 234.720 391.975, 235.410 389.917 C 237.626 383.306, 239.254 377.971, 240.947 371.775 C 242.041 367.774, 244.016 360.803, 245.336 356.285 C 246.657 351.767, 247.507 347.841, 247.226 347.560 C 246.945 347.278, 247.194 346.471, 247.780 345.765 C 248.365 345.060, 249.558 341.561, 250.431 337.991 C 251.304 334.421, 252.635 329.250, 253.389 326.500 C 255.348 319.353, 255.498 319.456, 245.898 321.378 M 256.566 324.893 C 256.213 325.465, 254.333 331.911, 252.390 339.217 C 250.446 346.522, 248.467 353.850, 247.992 355.500 C 247.517 357.150, 245.951 362.775, 244.513 368 C 243.074 373.225, 241.067 380.425, 240.053 384 C 238.977 387.793, 238.309 392.954, 238.451 396.392 C 238.729 403.158, 238.014 402.549, 252.746 408.565 C 257.832 410.641, 262.235 412.099, 262.531 411.803 C 263.256 411.077, 264.756 401.519, 265.941 390.064 L 266.915 380.653 261.663 370.415 C 258.066 363.404, 256.639 359.599, 257.135 358.339 C 257.812 356.621, 257.864 356.630, 257.930 358.480 C 257.990 360.190, 264.285 371.582, 265.953 373 C 266.276 373.275, 267.096 374.763, 267.775 376.306 C 268.533 378.031, 269.458 378.835, 270.174 378.392 C 270.964 377.904, 271.127 378.227, 270.679 379.393 C 269.893 381.442, 278.442 399.998, 282.264 404.538 C 283.671 406.209, 285.541 409.134, 286.421 411.038 C 287.301 412.942, 287.836 413.600, 287.610 412.500 C 286.631 407.743, 277.498 377.003, 272.012 360 C 268.729 349.825, 265.405 339.250, 264.626 336.500 C 262.459 328.857, 262.666 334.879, 265.124 351 C 268.185 371.074, 268.284 372, 267.355 371.995 C 266.609 371.990, 262.121 346.761, 260.330 332.500 C 259.661 327.172, 257.658 323.126, 256.566 324.893 M 99.250 329.674 C 96.899 331.314, 96.149 335, 98.167 335 C 98.808 335, 99.098 335.236, 98.810 335.524 C 97.683 336.650, 95.244 334.783, 95.677 333.126 C 95.980 331.967, 95.274 330.990, 93.571 330.214 C 90.651 328.884, 88.281 329.561, 83 333.234 C 81.075 334.573, 74.325 339.192, 68 343.497 C 61.675 347.803, 54.160 353.165, 51.300 355.413 C 48.440 357.661, 41.152 363.100, 35.105 367.500 C 29.057 371.900, 23.961 376.175, 23.780 377 C 23.263 379.353, 25.326 382.984, 27.185 382.992 C 28.111 382.996, 33.286 382.306, 38.685 381.457 C 44.083 380.609, 52.775 379.242, 58 378.421 C 70.515 376.454, 77.794 375.356, 87.500 373.970 C 103.646 371.665, 135.373 365.016, 136.154 363.774 C 136.594 363.073, 136.691 361.656, 136.370 360.625 C 135.958 359.302, 136.150 358.975, 137.023 359.514 C 140.214 361.486, 136.936 357.556, 131.811 353.264 C 122.047 345.088, 109.313 334.173, 105.862 331.021 C 102.072 327.560, 102.234 327.593, 99.250 329.674 M 198 333.837 C 193.875 335.910, 183.606 342.049, 175.180 347.480 C 161.909 356.034, 159.944 357.632, 160.494 359.427 C 160.842 360.567, 161.379 363.386, 161.687 365.691 C 162.178 369.367, 162.692 370.061, 165.873 371.345 C 167.868 372.149, 172.425 374.158, 176 375.807 C 193.739 383.993, 193.702 384, 198.412 371.651 C 200.332 366.618, 202.653 360.131, 203.571 357.235 C 204.489 354.339, 205.636 351.725, 206.120 351.426 C 207.550 350.542, 207.170 352.227, 203.939 361.096 C 196.989 380.172, 196.820 380.794, 197.974 382.952 C 198.814 384.522, 198.770 385.005, 197.785 385.020 C 197.078 385.030, 199.425 386.820, 203 388.997 C 211.661 394.272, 211.750 394.310, 213.658 393.578 C 215.159 393.002, 215.252 390.936, 214.650 371.721 C 213.871 346.888, 213.050 336.851, 211.858 337.588 C 211.386 337.879, 211 339.136, 211 340.380 C 211 341.625, 210.077 344.411, 208.949 346.571 C 207.097 350.120, 206.959 350.211, 207.528 347.510 C 207.875 345.866, 208.521 344.291, 208.963 344.010 C 210.498 343.037, 210.815 335.092, 209.367 333.890 C 208.615 333.266, 208 332.135, 208 331.378 C 208 329.280, 206.174 329.729, 198 333.837 M 215.378 337.500 C 215.639 338.600, 216.133 350.300, 216.475 363.500 C 217.144 389.266, 217.507 393, 219.340 393 C 219.989 393, 221.753 394.143, 223.260 395.540 C 224.767 396.938, 226 397.655, 226 397.134 C 226 396.613, 226.857 396.411, 227.904 396.685 C 232.072 397.775, 231.609 393.442, 224.999 369.500 C 223.329 363.450, 220.790 354, 219.357 348.500 C 217.925 343, 216.337 337.825, 215.829 337 C 215.111 335.835, 215.010 335.947, 215.378 337.500 M 121 370.441 C 102.646 374.128, 92.491 375.890, 77 378.073 C 64.959 379.770, 44.506 383.034, 29.250 385.695 C 27.442 386.010, 26 386.869, 26 387.631 C 26 388.384, 25.550 389, 25 389 C 24.450 389, 24 389.660, 24 390.466 C 24 391.854, 34.975 395.703, 52.500 400.463 C 55.800 401.359, 62.100 403.177, 66.500 404.503 C 81.098 408.902, 86.807 410.024, 89.460 409.015 C 91.894 408.090, 94.257 409.310, 95.161 411.958 C 95.347 412.505, 99.325 413.675, 104 414.558 C 108.675 415.441, 119.438 417.716, 127.918 419.614 C 138.826 422.054, 143.648 422.752, 144.402 421.998 C 145.062 421.338, 145.610 412.989, 145.843 400.060 L 146.220 379.188 143.860 377.969 C 139.810 375.877, 137 372.746, 137 370.326 C 137 367.409, 136.054 367.416, 121 370.441 M 157.642 375.851 L 154.911 378.703 156.985 386.101 C 158.127 390.171, 160.419 399.560, 162.080 406.966 C 163.741 414.373, 165.242 420.576, 165.417 420.750 C 166.623 421.956, 187.337 414.268, 205.124 406.012 C 206.822 405.224, 208.215 403.377, 209.073 400.779 C 210.287 397.099, 210.235 396.641, 208.449 395.291 C 204.835 392.559, 195.507 387.510, 194.613 387.802 C 194.125 387.961, 192.775 387.248, 191.613 386.217 C 189.646 384.472, 163.328 373, 161.292 373 C 160.787 373, 159.145 374.283, 157.642 375.851 M 149.471 380.048 C 149.114 380.624, 148.572 390.639, 148.266 402.304 C 147.769 421.202, 147.888 423.662, 149.354 424.879 C 150.259 425.630, 151 425.910, 151 425.500 C 151 425.090, 151.590 425.245, 152.311 425.843 C 153.280 426.647, 154.854 426.364, 158.345 424.758 C 162.776 422.720, 163.030 422.398, 162.447 419.543 C 161.031 412.601, 153.891 383.845, 153.007 381.517 C 152.003 378.877, 150.564 378.279, 149.471 380.048 M 268.642 388.105 C 268.384 389.422, 267.412 395.619, 266.482 401.876 C 265.067 411.391, 265.012 413.393, 266.145 414.111 C 269.636 416.323, 270.057 415.249, 269.423 405.750 C 269.050 400.171, 269.216 395.508, 269.839 394 C 270.712 391.890, 270.883 392.485, 270.937 397.807 C 270.971 401.276, 271.521 407.272, 272.159 411.132 L 273.318 418.148 278.282 420.543 L 283.246 422.938 282.579 418.769 C 282.212 416.475, 281.541 414.127, 281.086 413.550 C 280.632 412.972, 279.711 410.700, 279.039 408.500 C 277.447 403.286, 270.987 387.757, 269.931 386.605 C 269.477 386.110, 268.901 386.780, 268.642 388.105 M 20.375 396.138 C 19.253 397.378, 19.104 398, 19.928 398 C 20.609 398, 20.980 398.560, 20.752 399.245 C 20.524 399.929, 21.772 403.642, 23.525 407.495 C 25.279 411.348, 27.057 415.585, 27.476 416.911 C 27.894 418.238, 30.254 423.638, 32.720 428.911 C 35.185 434.185, 38.998 442.775, 41.194 448 C 56.288 483.915, 67.344 508.898, 70.845 515 C 71.377 515.927, 73.788 516.691, 77.154 517 L 82.602 517.500 85.835 513 C 89.266 508.224, 110.787 474.889, 115 467.824 C 118.492 461.970, 130.044 444.493, 134.374 438.514 C 136.547 435.513, 137.768 432.845, 137.441 431.814 C 137.142 430.871, 137.583 428.773, 138.422 427.152 C 140.232 423.650, 142.728 424.554, 115.616 418.894 C 105.229 416.726, 96.351 414.717, 95.886 414.430 C 95.422 414.143, 94.165 414.377, 93.093 414.950 C 90.748 416.205, 88.228 415.408, 87.807 413.278 C 87.599 412.228, 84.587 411.003, 78.500 409.493 C 73.550 408.266, 61.175 404.918, 51 402.055 C 21.867 393.856, 22.355 393.950, 20.375 396.138 M 228.255 404.732 C 221.022 405.384, 220.963 409.153, 228.037 418.500 C 232.226 424.035, 245.078 443.444, 248.565 449.500 C 252.706 456.693, 256 461.445, 256 460.225 C 256 458.903, 249.084 439.471, 239.014 412.500 C 236.995 407.092, 234.570 403.702, 233.059 404.175 C 232.751 404.271, 230.590 404.522, 228.255 404.732 M 241.969 414.250 C 243.571 418.788, 246.933 427.900, 249.439 434.500 C 251.945 441.100, 253.997 446.808, 253.998 447.185 C 253.999 447.562, 254.514 449.137, 255.143 450.685 C 256.161 453.191, 256.545 451.801, 258.646 438 C 259.943 429.475, 261.116 420.755, 261.253 418.623 L 261.500 414.746 251.500 410.409 C 246 408.024, 240.950 406.056, 240.278 406.036 C 239.458 406.012, 240.014 408.711, 241.969 414.250 M 200 411.036 C 188.037 416.441, 185.686 417.399, 175.249 421.121 C 167.012 424.059, 166.069 424.644, 166.643 426.460 C 166.997 427.582, 168.108 429.078, 169.112 429.784 C 170.417 430.703, 170.780 431.852, 170.385 433.823 C 169.937 436.065, 170.560 437.314, 173.733 440.539 C 184.024 450.995, 190.738 456.936, 191.491 456.253 C 191.947 455.839, 192.019 456.026, 191.651 456.669 C 191.283 457.313, 191.550 458.438, 192.245 459.169 C 192.940 459.901, 195.526 462.975, 197.991 466 C 203.575 472.853, 203.667 472.916, 206.868 472.063 C 209.494 471.363, 209.501 471.335, 210.136 458.431 C 211.119 438.445, 213.012 413.790, 213.642 412.771 C 214.199 411.869, 210.205 406.906, 209.076 407.098 C 208.759 407.151, 204.675 408.924, 200 411.036 M 1061.280 408.020 C 1059.153 408.876, 1058.392 410.600, 1057.780 415.947 C 1057.557 417.900, 1054.935 419.964, 1044.793 426.171 C 1037.805 430.449, 1031.816 433.511, 1031.484 432.975 C 1031.153 432.439, 1029.086 432, 1026.890 432 C 1023.251 432, 1022.765 432.319, 1021.392 435.604 C 1019.453 440.244, 1020.357 444.345, 1024.203 448.370 L 1027.195 451.500 1026.502 464.500 C 1025.865 476.463, 1025.618 477.683, 1023.405 479.790 C 1021.526 481.580, 1021 483.117, 1021 486.818 C 1021 492.983, 1023.089 496, 1027.357 496 C 1029.141 496, 1031.069 495.531, 1031.642 494.958 C 1032.365 494.235, 1035.567 495.555, 1042.092 499.265 C 1058.208 508.428, 1059.655 509.524, 1060.372 513.108 C 1060.730 514.902, 1061.749 517.170, 1062.636 518.150 C 1064.023 519.683, 1064.186 522.250, 1063.803 536.535 C 1063.366 552.830, 1063.310 553.180, 1060.816 555.320 C 1053.764 561.369, 1055.227 573.667, 1063.225 575.559 C 1065.409 576.076, 1066.550 575.604, 1068.975 573.179 C 1071.542 570.612, 1072 569.390, 1072 565.112 C 1072 560.882, 1071.493 559.492, 1068.849 556.481 L 1065.699 552.893 1066.270 536.196 C 1066.693 523.839, 1067.251 518.720, 1068.415 516.500 C 1069.280 514.850, 1069.990 512.577, 1069.994 511.449 C 1069.998 509.983, 1072.637 507.614, 1079.250 503.141 C 1084.338 499.700, 1089.694 495.954, 1091.154 494.818 C 1093.640 492.883, 1093.955 492.855, 1096.127 494.376 C 1102.182 498.617, 1108 494.964, 1108 486.920 C 1108 483.454, 1107.423 482.241, 1104.500 479.564 L 1101 476.358 1101 463.205 L 1101 450.051 1104.043 448.478 C 1107.867 446.501, 1109.437 443.141, 1108.606 438.714 C 1107.615 433.431, 1104.972 431.608, 1099.265 432.271 C 1093.946 432.889, 1091.915 432.019, 1079.250 423.695 C 1072.290 419.121, 1072 418.773, 1072 415.004 C 1072 408.613, 1067.344 405.580, 1061.280 408.020 M 215.606 413.250 C 214.944 415.622, 213.387 438.398, 212.510 458.535 C 212.004 470.169, 212.058 470.583, 214.471 473.500 C 216.326 475.742, 217.168 476.176, 217.806 475.216 C 218.963 473.476, 222 474.778, 222 477.013 C 222 478.213, 222.584 478.679, 223.750 478.413 C 247.668 472.947, 252 471.566, 252 469.411 C 252 468.713, 252.719 467.424, 253.598 466.545 C 255.061 465.081, 255.061 464.743, 253.597 462.507 C 252.717 461.165, 250.921 458.139, 249.605 455.783 C 245.487 448.412, 234.793 431.626, 227.510 421.101 C 222.330 413.615, 219.966 411, 218.377 411 C 217.007 411, 216.007 411.812, 215.606 413.250 M 263.155 421.680 C 261.347 430.844, 260.159 438.919, 259.503 446.500 C 259.170 450.350, 258.705 454.440, 258.470 455.588 C 258.235 456.737, 258.708 458.537, 259.522 459.588 C 260.974 461.466, 261.028 461.465, 262.619 459.500 C 264.189 457.560, 264.218 457.583, 263.600 460.250 C 263.249 461.762, 263.342 463, 263.807 463 C 266.707 463, 282.382 438.345, 281.403 435.325 C 280.959 433.957, 281.054 433.839, 281.781 434.857 C 282.903 436.427, 284.531 434.668, 283.500 433 C 283.160 432.450, 283.367 432, 283.960 432 C 285.263 432, 284.194 427.051, 282.532 425.390 C 281.426 424.284, 275.534 421, 274.655 421 C 274.411 421, 274.602 422.688, 275.081 424.750 C 276.210 429.609, 276.219 432, 275.109 432 C 274.620 432, 273.985 430.538, 273.699 428.750 C 273.413 426.962, 272.948 424.600, 272.666 423.500 C 272.384 422.400, 272.104 421.275, 272.045 421 C 271.688 419.353, 269.018 417.043, 266.840 416.496 C 264.425 415.890, 264.248 416.140, 263.155 421.680 M 1046 428.319 L 1034.500 435.626 1034.380 440.063 C 1034.238 445.301, 1034.554 445.757, 1043 452.503 C 1046.575 455.358, 1051.525 459.551, 1054 461.820 C 1058.938 466.348, 1059.252 466.471, 1062.066 464.965 C 1063.879 463.994, 1064 462.680, 1064 443.965 C 1064 427.674, 1063.747 424, 1062.622 424 C 1061.865 424, 1060.685 423.325, 1060 422.500 C 1059.315 421.675, 1058.473 421.003, 1058.128 421.006 C 1057.782 421.009, 1052.325 424.300, 1046 428.319 M 1068.228 423.793 C 1065.983 425.521, 1065.959 425.776, 1066.228 445.438 C 1066.402 458.152, 1066.877 465.460, 1067.545 465.683 C 1068.120 465.874, 1069.470 465.232, 1070.545 464.257 C 1071.620 463.281, 1075.414 460.012, 1078.976 456.991 C 1082.538 453.971, 1085.954 451.050, 1086.568 450.500 C 1087.181 449.950, 1088.992 448.506, 1090.592 447.292 C 1093.072 445.409, 1093.500 444.397, 1093.500 440.416 L 1093.500 435.749 1082.725 428.875 C 1076.799 425.094, 1071.624 422.010, 1071.225 422.022 C 1070.826 422.034, 1069.478 422.831, 1068.228 423.793 M 158.442 427.559 C 154.220 429.424, 153.087 430.511, 151.580 434.146 C 149.282 439.691, 149.529 445.813, 153.104 472 C 154.472 482.012, 154.889 483.257, 156.654 482.579 C 159.060 481.656, 163.834 484.777, 166.518 489.028 C 167.897 491.213, 169.357 492.990, 169.763 492.978 C 171.729 492.920, 192.946 487.103, 196.121 485.751 C 198.808 484.608, 199.868 483.473, 200.230 481.355 C 200.498 479.785, 201.027 477.783, 201.405 476.908 C 202.348 474.726, 191.745 461.752, 178.396 448.751 C 172.606 443.113, 167.336 438.275, 166.684 438 C 160.713 435.479, 158.948 431.044, 164.250 431.882 C 165.158 432.025, 165.117 429.101, 164.180 426.913 C 163.577 425.505, 162.931 425.578, 158.442 427.559 M 133.333 443.220 C 128.483 449.976, 121.443 460.945, 117.600 467.735 C 117.085 468.645, 117.684 468.813, 119.873 468.375 C 122.640 467.822, 122.920 468.047, 123.917 471.640 C 124.507 473.763, 124.991 476.049, 124.994 476.719 C 125 477.857, 131.386 482.557, 139.952 487.726 L 143.640 489.952 147.791 486.081 L 151.942 482.210 149.542 460.958 C 147.231 440.498, 146.598 438.066, 143.579 438.015 C 143.072 438.007, 141.897 437.312, 140.967 436.470 C 139.415 435.066, 138.789 435.619, 133.333 443.220 M 281.715 442.325 C 279.672 445.819, 278 449.199, 278 449.838 C 278 450.477, 277.623 451, 277.163 451 C 276.063 451, 265.592 466.926, 266.256 467.589 C 266.537 467.870, 266.402 469.717, 265.956 471.694 C 265.198 475.057, 265.501 475.726, 270.686 482.144 C 273.732 485.915, 276.381 489, 276.570 489 C 277.595 489, 281 474.543, 281 470.192 C 281 467.106, 281.510 464.784, 282.293 464.300 C 285.385 462.388, 288.755 442.319, 286.657 438.315 C 285.466 436.041, 285.324 436.156, 281.715 442.325 M 289.537 446.164 C 289.141 451.755, 289.194 464.017, 289.655 473.414 L 290.493 490.500 291.117 475.500 C 292.083 452.303, 292.088 436, 291.129 436 C 290.650 436, 289.933 440.574, 289.537 446.164 M 1219.611 439.532 C 1216.026 443.116, 1216.437 453.792, 1220.262 456.471 C 1222.522 458.054, 1226.638 458.460, 1229.455 457.379 C 1233.943 455.657, 1235.492 445.166, 1231.927 440.635 C 1230.255 438.509, 1229.014 438, 1225.499 438 C 1222.920 438, 1220.518 438.625, 1219.611 439.532 M 422.459 441.250 C 422.195 441.938, 422.097 465.844, 422.240 494.375 L 422.500 546.250 428.500 546.250 L 434.500 546.250 434.761 506.625 C 434.914 483.515, 435.404 467, 435.938 467 C 436.441 467, 438.322 469.587, 440.117 472.750 C 441.912 475.913, 446.061 483, 449.338 488.500 C 452.614 494, 456.427 500.525, 457.811 503 C 459.195 505.475, 462.754 511.266, 465.719 515.870 L 471.110 524.239 475.555 517.471 C 478 513.749, 480 510.536, 480 510.332 C 480 510.127, 481.211 508.057, 482.692 505.730 C 484.172 503.404, 490.247 493.404, 496.192 483.510 C 502.136 473.615, 507.100 465.740, 507.221 466.010 C 507.343 466.279, 507.680 484.500, 507.971 506.500 L 508.500 546.500 514.493 546.159 C 517.790 545.971, 520.715 545.676, 520.993 545.504 C 521.272 545.332, 521.380 521.523, 521.233 492.596 L 520.965 440 514.072 440 L 507.179 440 503.017 446.591 C 500.727 450.216, 497.150 456.403, 495.067 460.341 C 491.401 467.272, 489.401 470.866, 484.822 478.750 C 483.624 480.813, 481.287 484.975, 479.628 488 C 477.969 491.025, 475.423 495.153, 473.970 497.173 L 471.329 500.846 468.274 495.673 C 466.594 492.828, 464.026 488.475, 462.567 486 C 461.108 483.525, 459.511 480.825, 459.019 480 C 455.485 474.079, 448 460.725, 448 460.341 C 448 460.081, 445.750 456.060, 443 451.404 C 440.250 446.748, 438 442.551, 438 442.076 C 438 440.647, 435.159 440, 428.887 440 C 425.049 440, 422.767 440.444, 422.459 441.250 M 574.467 440.765 C 573.899 441.169, 572.187 444.875, 570.663 449 C 569.139 453.125, 567.062 458.750, 566.047 461.500 C 560.347 476.946, 542.328 526.547, 537.910 538.953 C 536.842 541.951, 536.106 544.818, 536.275 545.324 C 536.443 545.829, 539.439 546.274, 542.932 546.312 L 549.284 546.382 553.722 533.941 C 556.164 527.098, 558.402 520.712, 558.697 519.750 C 559.186 518.155, 561.117 518, 580.500 518 C 599.885 518, 601.814 518.155, 602.298 519.750 C 604.112 525.722, 611.099 544.494, 611.735 545.101 C 612.156 545.503, 615.313 545.982, 618.752 546.166 C 623.457 546.417, 625.003 546.171, 625.002 545.169 C 625 544, 613.066 511.091, 604.995 490 C 603.417 485.875, 600.507 478, 598.529 472.500 C 596.551 467, 594.462 461.388, 593.886 460.028 C 593.311 458.668, 591.688 454.168, 590.278 450.028 C 588.869 445.888, 587.275 441.938, 586.736 441.250 C 585.680 439.905, 576.203 439.530, 574.467 440.765 M 614.490 441.015 C 614.145 441.574, 618.005 449.336, 623.067 458.265 C 639.827 487.827, 644.678 496.464, 646.509 500 C 648.070 503.013, 648.346 506.390, 648.496 524.251 C 648.591 535.665, 648.856 545.184, 649.085 545.406 C 649.579 545.886, 654.402 546.254, 658.250 546.106 L 661 546 661 524.239 L 661 502.478 667.846 490.489 C 671.611 483.895, 678.586 472.006, 683.346 464.069 C 688.106 456.131, 692 449.452, 692 449.226 C 692 449, 692.900 447.671, 694 446.273 C 697.586 441.713, 696.748 440.536, 689.668 440.194 L 683.340 439.888 680.827 443.694 C 679.445 445.787, 676.379 451.100, 674.012 455.500 C 666.872 468.775, 655.775 488.021, 654.976 488.515 C 653.660 489.328, 652.870 487.959, 636.193 456 C 632.032 448.025, 628.149 441.169, 627.564 440.765 C 625.951 439.651, 615.206 439.857, 614.490 441.015 M 708.345 441.250 C 707.666 442.348, 707.598 456.435, 707.925 529.165 L 708 545.829 714.502 546.165 L 721.004 546.500 721.002 522.750 L 721 499 745 499 C 763.484 499, 769.021 499.287, 769.092 500.250 C 769.142 500.938, 769.147 510.275, 769.103 521 C 769.058 531.725, 769.387 541.850, 769.834 543.500 C 770.612 546.376, 770.869 546.497, 776.073 546.438 L 781.500 546.375 782.221 540.635 C 782.617 537.479, 782.842 513.657, 782.721 487.698 L 782.500 440.500 776.378 440.206 C 770.720 439.934, 770.211 440.085, 769.650 442.206 C 769.317 443.468, 769.061 453.050, 769.082 463.500 C 769.103 473.950, 769.093 483.063, 769.060 483.750 C 769.014 484.714, 763.501 485, 745 485 L 721 485 721 462.500 L 721 440 715.059 440 C 711.385 440, 708.823 440.477, 708.345 441.250 M 803.682 440.652 C 803.307 441.027, 803 464.852, 803 493.597 L 803 545.861 805.250 546.180 C 806.487 546.356, 819.763 546.374, 834.750 546.219 L 862 545.938 862 540.086 C 862 534.515, 861.870 534.208, 859.287 533.715 C 857.795 533.429, 848.233 533.281, 838.037 533.386 C 827.842 533.490, 818.702 533.391, 817.726 533.165 C 816.102 532.789, 815.976 531.355, 816.226 516.127 L 816.500 499.500 837 499 L 857.500 498.500 857.816 494.080 C 858.469 484.931, 859.558 485.424, 838.282 485.250 C 827.952 485.166, 818.712 485.076, 817.750 485.049 C 816.161 485.004, 816 483.577, 816 469.500 C 816 460.975, 816.337 453.943, 816.750 453.873 C 817.163 453.803, 827.060 453.607, 838.744 453.436 C 850.429 453.265, 860.342 452.907, 860.774 452.640 C 861.205 452.373, 861.545 449.532, 861.529 446.327 L 861.500 440.500 832.932 440.235 C 817.219 440.089, 804.057 440.277, 803.682 440.652 M 880.459 441.250 C 880.195 441.938, 880.097 465.900, 880.240 494.500 L 880.500 546.500 886.750 546.530 L 893 546.559 893 508.362 C 893 487.353, 893.277 469.443, 893.615 468.561 C 894.105 467.283, 894.560 467.540, 895.865 469.834 C 907.365 490.054, 926.502 521.335, 927.591 521.692 C 928.407 521.960, 935.828 509.495, 950.331 483.500 C 953.092 478.550, 956.848 472.039, 958.676 469.031 L 962 463.563 962 504.615 C 962 527.193, 962.186 545.854, 962.413 546.083 C 962.641 546.313, 965.570 546.347, 968.922 546.161 L 975.018 545.821 974.759 493.178 L 974.500 440.535 967.853 440.235 C 959.938 439.877, 959.893 439.919, 951.326 455.500 C 948.301 461, 944.467 467.975, 942.804 471 C 941.142 474.025, 939.381 476.650, 938.891 476.833 C 938.401 477.017, 938 477.939, 938 478.883 C 938 479.828, 937.579 481.028, 937.064 481.550 C 936.550 482.072, 934.693 485.401, 932.939 488.947 C 928.043 498.842, 927.690 498.982, 923.628 492.633 C 921.722 489.654, 919.393 485.705, 918.451 483.858 C 917.509 482.011, 911.568 471.387, 905.248 460.250 L 893.758 440 887.348 440 C 883.141 440, 880.773 440.430, 880.459 441.250 M 1155.082 441.846 C 1154.539 442.861, 1152.536 448.149, 1150.631 453.596 C 1140.113 483.674, 1134.947 498.186, 1132.691 504 C 1131.303 507.575, 1129.288 513.200, 1128.214 516.500 C 1127.139 519.800, 1124.626 527.120, 1122.630 532.767 C 1117.650 546.851, 1117.593 546.573, 1125.404 546.169 L 1131.813 545.838 1136.726 532.169 L 1141.638 518.500 1162.501 518.500 L 1183.365 518.500 1188.138 531.872 C 1190.763 539.227, 1193.045 545.378, 1193.208 545.541 C 1193.371 545.705, 1196.429 545.948, 1200.002 546.081 C 1207.422 546.358, 1207.351 546.502, 1203.992 538 C 1202.796 534.975, 1201.216 530.700, 1200.480 528.500 C 1198.715 523.227, 1194.766 512.443, 1186.562 490.500 C 1182.860 480.600, 1177.613 466.223, 1174.901 458.552 C 1168.381 440.107, 1168.304 440, 1161.512 440 C 1157.245 440, 1155.857 440.399, 1155.082 441.846 M 1030.793 448.096 C 1028.532 449.361, 1028.094 479, 1030.337 479 C 1032.754 479, 1034.448 482.054, 1034.985 487.380 C 1035.486 492.349, 1035.650 492.575, 1041 495.674 C 1050.047 500.916, 1054.133 503.380, 1057.656 505.719 C 1059.572 506.991, 1061.701 507.668, 1062.645 507.306 C 1064.116 506.742, 1064.221 505.076, 1063.622 491.813 C 1063.039 478.883, 1062.695 476.695, 1060.976 474.976 C 1059.889 473.889, 1059 472.423, 1059 471.719 C 1059 470.091, 1049.727 461.105, 1039.949 453.258 C 1034.247 448.681, 1032.006 447.417, 1030.793 448.096 M 1086.451 454.019 C 1073.785 464.262, 1069.179 468.909, 1068.464 472.166 C 1068.121 473.725, 1067.427 475, 1066.921 475 C 1066.398 475, 1066 481.921, 1066 491 C 1066 505.378, 1066.172 507, 1067.696 507 C 1069.089 507, 1076.109 502.913, 1078 501 C 1078.275 500.722, 1080.482 499.149, 1082.904 497.504 C 1090.477 492.363, 1093 489.501, 1093 486.053 C 1093 483.946, 1093.907 482.018, 1095.750 480.205 C 1098.431 477.568, 1098.508 477.171, 1098.824 464.452 C 1099.110 452.896, 1098.933 451.139, 1097.275 449.092 L 1095.403 446.779 1086.451 454.019 M 575.497 473.702 C 569.904 488.803, 565 503.045, 565 504.188 C 565 505.209, 595.725 505.270, 596.318 504.250 C 596.696 503.600, 581.569 462.235, 580.598 461.265 C 580.399 461.066, 578.104 466.663, 575.497 473.702 M 1158.183 470.702 C 1148.659 498.375, 1147 503.333, 1147 504.126 C 1147 504.607, 1153.939 505, 1162.419 505 L 1177.839 505 1176.872 501.250 C 1176.341 499.188, 1175.522 496.600, 1175.053 495.500 C 1174.583 494.400, 1172.609 489, 1170.665 483.500 C 1168.722 478, 1166.259 471.044, 1165.193 468.042 C 1164.127 465.041, 1162.795 462.432, 1162.233 462.244 C 1161.671 462.057, 1159.848 465.863, 1158.183 470.702 M 1219.132 471.341 C 1217.954 472.760, 1217.478 541.475, 1218.625 544.464 C 1219.070 545.624, 1220.781 546, 1225.607 546 L 1232 546 1232 508.607 C 1232 466.809, 1232.617 470, 1224.541 470 C 1222.169 470, 1219.747 470.601, 1219.132 471.341 M 112.487 475.550 C 110.850 478.203, 97.932 497.956, 87.737 513.395 L 83.845 519.289 85.849 521.294 L 87.854 523.298 94.177 521.011 C 100.593 518.690, 112.009 513.887, 122 509.307 C 125.025 507.920, 131.213 505.441, 135.750 503.798 C 143.859 500.862, 144 500.753, 144 497.443 C 144 494.338, 143.205 493.480, 133.853 486.487 C 127.682 481.873, 123.120 479.124, 122.212 479.472 C 120.258 480.222, 116.106 477.460, 115.100 474.742 C 114.334 472.670, 114.249 472.696, 112.487 475.550 M 249.500 474.949 C 248.400 475.396, 241.104 477.251, 233.288 479.072 C 219.570 482.266, 219.054 482.480, 218.457 485.195 C 217.983 487.354, 218.426 488.648, 220.359 490.755 C 221.744 492.265, 225.709 496.650, 229.169 500.500 C 232.629 504.350, 240.129 512.298, 245.835 518.161 C 255.931 528.536, 256.290 528.795, 259.188 527.784 C 262.129 526.759, 262.159 526.675, 261.552 521.123 C 261.214 518.030, 260.532 507.338, 260.035 497.362 C 259.156 479.695, 259.064 479.155, 256.521 476.612 C 253.773 473.864, 252.758 473.624, 249.500 474.949 M 281.683 477.760 C 281.385 479.267, 280.476 483.081, 279.664 486.237 L 278.187 491.973 282.178 496.987 C 284.374 499.744, 286.286 502, 286.429 502 C 286.731 502, 286.318 489.739, 285.991 489 C 285.686 488.311, 285.498 487.294, 284.555 481.228 C 283.616 475.178, 282.467 473.791, 281.683 477.760 M 262.304 478.556 C 261.323 480.514, 262.019 504.503, 263.517 520.392 C 264.122 526.805, 264.466 527.930, 265.355 526.392 C 265.956 525.351, 266.496 524.275, 266.556 524 C 266.615 523.725, 267.670 521.253, 268.901 518.506 C 270.131 515.759, 271.613 511.484, 272.193 509.006 C 273.540 503.246, 274.939 499.606, 275.565 500.232 C 275.835 500.502, 275.593 501.939, 275.028 503.426 C 274.463 504.913, 274 507.457, 274 509.079 C 274 510.700, 273.589 512.809, 273.086 513.764 C 271.041 517.647, 267.893 526.226, 268.346 526.680 C 268.852 527.185, 271.867 524.722, 280.380 516.849 C 284.755 512.803, 285.235 511.989, 284.072 510.587 C 283.051 509.357, 282.411 509.244, 281.367 510.110 C 280.546 510.792, 280 510.846, 280 510.245 C 280 508.961, 282.517 506.850, 283.215 507.548 C 283.507 507.840, 283.993 507.136, 284.294 505.982 C 284.682 504.502, 283.616 502.358, 280.671 498.692 C 278.377 495.837, 274.621 491.025, 272.323 488 C 263.702 476.647, 263.402 476.364, 262.304 478.556 M 188 490.629 C 167.479 495.914, 168.331 495.530, 167.648 499.798 C 167.298 501.988, 165.964 504.625, 164.519 505.982 C 163.134 507.284, 162 508.719, 162 509.172 C 162 509.624, 163.324 512.808, 164.943 516.247 C 166.561 519.686, 170.320 528.575, 173.294 536 C 176.269 543.425, 180.428 552.987, 182.537 557.250 C 186.284 564.824, 186.455 565, 190.061 565 L 193.751 565 197.258 553.750 C 200.615 542.981, 201.972 537.717, 209.371 506.750 L 212.657 493 209.905 493 C 208.392 493, 205.816 491.875, 204.182 490.500 C 200.623 487.505, 200.112 487.509, 188 490.629 M 214.625 491.708 C 214.281 492.052, 214 493.242, 214 494.353 C 214 495.463, 213.342 499.101, 212.537 502.436 C 205.674 530.887, 201.611 547.072, 199.093 555.982 C 197.464 561.747, 196.293 566.626, 196.490 566.824 C 197.415 567.749, 220.070 534.506, 221.426 530.234 C 221.816 529.005, 222.529 528, 223.011 528 C 223.493 528, 225.097 525.307, 226.574 522.015 C 228.051 518.722, 229.877 515.517, 230.630 514.892 C 232.624 513.238, 232.329 515.301, 230.170 518.115 C 227.591 521.477, 226.816 523.657, 225.770 530.500 C 224.323 539.970, 225.016 556, 226.873 556 C 227.286 556, 233.446 552.513, 240.562 548.250 L 253.500 540.500 253.500 536.344 C 253.500 534.057, 253.838 532.396, 254.250 532.653 C 254.662 532.909, 255 532.639, 255 532.054 C 255 531.469, 249.262 525.022, 242.250 517.729 C 235.238 510.435, 226.765 501.550, 223.423 497.984 C 217.439 491.600, 215.860 490.473, 214.625 491.708 M 136 506.426 C 132.425 507.678, 127.025 509.857, 124 511.269 C 120.975 512.680, 115.575 515.017, 112 516.462 C 108.425 517.907, 104.600 519.503, 103.500 520.009 C 102.400 520.514, 98.800 521.982, 95.500 523.269 C 90.224 525.328, 89.464 525.966, 89.205 528.562 C 88.921 531.401, 89.208 531.623, 96.705 534.356 C 100.992 535.919, 108.550 539.118, 113.500 541.466 C 125.306 547.064, 148.196 556.951, 159.500 561.335 C 164.450 563.254, 171.124 566.210, 174.332 567.902 C 179.366 570.558, 180.358 570.785, 181.582 569.561 C 182.362 568.781, 183 567.439, 183 566.578 C 183 565.718, 179.625 557.358, 175.500 548 C 171.375 538.642, 167.986 530.427, 167.969 529.743 C 167.952 529.059, 165.799 524.264, 163.185 519.086 C 158.932 510.662, 158.135 509.659, 155.605 509.548 C 153.626 509.461, 152.531 510.035, 151.953 511.462 C 151.138 513.473, 151.126 513.474, 151.032 511.500 C 150.904 508.805, 146.530 503.982, 144.298 504.074 C 143.309 504.115, 139.575 505.173, 136 506.426 M 283.500 517.671 C 269.796 530.062, 269.087 530.894, 267.458 536.496 C 265.722 542.469, 265.771 542.768, 270.817 557 C 273.943 565.819, 287.794 592.666, 288.358 591 C 288.638 590.175, 289.360 582.525, 289.963 574 C 290.567 565.475, 291.477 553.775, 291.987 548 C 293.173 534.547, 293.245 521.269, 292.135 520.583 C 291.659 520.289, 291.398 518.878, 291.555 517.448 C 291.764 515.544, 291.460 514.993, 290.420 515.392 C 289.639 515.692, 289 515.501, 289 514.969 C 289 513.273, 287.607 513.958, 283.500 517.671 M 87.959 537.076 C 87.381 538.157, 87.223 539.552, 87.608 540.175 C 88.013 540.830, 87.865 541.035, 87.259 540.660 C 86.682 540.303, 85.956 540.673, 85.646 541.481 C 84.795 543.697, 100.809 569.537, 106.656 575.384 C 108.095 576.823, 110.123 578, 111.161 578 C 113.524 578, 115.237 582.185, 114.115 585.218 C 113.484 586.925, 112.483 587.461, 109.894 587.478 C 106.570 587.500, 106.447 587.655, 103.933 595 C 100.448 605.181, 94.757 621.626, 90.994 632.382 C 88.058 640.777, 87.745 644, 89.866 644 C 91.038 644, 98.126 637.804, 108.743 627.500 C 115.160 621.272, 116.987 618.884, 116.993 616.719 C 117.001 613.573, 119.293 612.168, 121.469 613.974 C 122.263 614.633, 123.382 614.882, 123.956 614.527 C 124.530 614.172, 125 614.359, 125 614.941 C 125 615.523, 124.540 616, 123.979 616 C 123.417 616, 122.451 617.111, 121.832 618.469 C 121.214 619.826, 120.294 620.682, 119.789 620.370 C 119.285 620.058, 113.020 625.584, 105.869 632.651 C 93.870 644.509, 92.912 645.728, 93.449 648.450 C 93.768 650.073, 94.586 651.754, 95.265 652.185 C 96.181 652.767, 96.113 652.984, 95 653.025 C 91.997 653.136, 98.624 655.726, 105 656.934 C 108.575 657.611, 115.975 659.296, 121.444 660.678 C 130.930 663.076, 131.447 663.109, 132.694 661.404 C 133.412 660.422, 134 659.304, 134 658.920 C 134 658.536, 134.779 658.285, 135.731 658.361 C 136.874 658.453, 137.508 657.724, 137.596 656.218 C 137.803 652.691, 138.684 652.594, 138.783 656.089 C 138.832 657.803, 139.097 659.430, 139.371 659.704 C 140.045 660.378, 143.841 660.298, 147.500 659.533 L 150.500 658.905 147.323 660.374 C 144.835 661.523, 144.266 662.300, 144.698 663.953 C 145.001 665.114, 145.981 666.450, 146.875 666.922 C 148.869 667.976, 167.639 673, 169.581 673 C 170.353 673, 172.226 671.589, 173.742 669.865 C 175.259 668.141, 177.963 666.110, 179.750 665.352 C 182.716 664.094, 183.016 663.559, 183.186 659.237 C 183.519 650.780, 187.964 611.425, 190.129 597.761 C 190.803 593.504, 191.143 589.810, 190.884 589.551 C 189.552 588.218, 186.071 590.751, 182.500 595.650 C 180.300 598.668, 176.830 603.321, 174.790 605.989 C 172.749 608.657, 169.613 613.239, 167.820 616.170 C 166.027 619.102, 163.759 622.372, 162.780 623.439 C 161.801 624.505, 161 625.786, 161 626.285 C 161 626.785, 158.750 630.387, 156 634.290 C 150.886 641.549, 149.252 642.614, 153.197 636.118 C 154.406 634.128, 155.659 632.275, 155.983 632 C 156.480 631.579, 162.974 621.521, 167.278 614.509 C 167.950 613.413, 170.412 609.921, 172.750 606.747 C 175.087 603.574, 177 600.533, 177 599.989 C 177 599.445, 177.398 599, 177.883 599 C 178.369 599, 179.043 598.212, 179.381 597.250 C 179.718 596.288, 181.134 593.951, 182.527 592.058 C 185.051 588.628, 185.053 588.608, 183.081 586.636 C 181.109 584.664, 181.087 584.667, 177.033 587.477 C 174.795 589.028, 172.672 590.005, 172.315 589.649 C 171.959 589.292, 172.157 589, 172.757 589 C 173.356 589, 175.160 587.895, 176.765 586.544 C 179.324 584.391, 179.671 583.459, 179.579 578.995 L 179.473 573.902 173.987 570.870 C 170.969 569.202, 161.525 564.985, 153 561.500 C 144.475 558.014, 133.450 553.300, 128.500 551.025 C 109.804 542.430, 100.361 538.482, 93.960 536.581 C 89.263 535.186, 88.957 535.211, 87.959 537.076 M 210.113 551.598 C 204.001 560.727, 199.007 568.715, 199.015 569.348 C 199.065 573.048, 200.960 572.521, 212.300 565.650 L 224.099 558.500 223.446 550.500 C 223.087 546.100, 222.737 540.813, 222.669 538.750 C 222.601 536.688, 222.248 535, 221.886 535 C 221.523 535, 216.225 542.469, 210.113 551.598 M 246.930 546.836 C 228.923 557.930, 227 559.354, 227 561.592 C 227 565.162, 230.852 582.867, 233.580 591.835 C 235.691 598.773, 236.399 600.056, 237.808 599.492 C 238.739 599.120, 240.725 598.719, 242.222 598.602 C 243.719 598.485, 245.149 598.184, 245.401 597.933 C 246.466 596.867, 255.861 550.858, 256.391 544.108 C 256.591 541.551, 254.557 542.138, 246.930 546.836 M 78.133 544.897 C 76.695 545.807, 76.753 548.335, 79.008 583 C 81.202 616.741, 81.993 629.828, 82.161 635.208 C 82.337 640.870, 83.862 643.199, 85.749 640.691 C 87.807 637.955, 106 584.716, 106 581.431 C 106 580.252, 104.401 577.193, 102.446 574.633 C 98.024 568.841, 88.157 553.921, 84.999 548.250 C 82.673 544.074, 80.843 543.180, 78.133 544.897 M 258.527 546.250 C 257.442 551.023, 254.786 564.703, 253.444 572.423 C 252.671 576.865, 251.145 584.645, 250.053 589.710 L 248.066 598.921 250.655 602.876 L 253.244 606.831 257.872 605.392 C 260.418 604.601, 266.663 602.757, 271.750 601.295 C 278.237 599.431, 281.024 598.169, 281.079 597.068 C 281.131 596.028, 281.328 595.923, 281.664 596.756 C 281.943 597.447, 282.563 597.770, 283.042 597.474 C 283.521 597.178, 283.657 596.270, 283.345 595.457 C 282.943 594.408, 283.247 594.157, 284.389 594.596 C 286.826 595.531, 286.436 594.284, 280.912 583.465 C 271.350 564.738, 270.292 562.494, 268.430 557 C 266.621 551.660, 266.547 551.587, 265.900 554.500 C 265.352 556.969, 265.290 556.803, 265.547 553.564 C 265.719 551.400, 265.205 548.362, 264.404 546.814 C 262.620 543.365, 259.256 543.042, 258.527 546.250 M 214.500 567.082 C 204.087 573.558, 201.025 575.804, 201.158 576.869 C 201.201 577.216, 201.150 577.725, 201.044 578 C 199.572 581.818, 200.391 582.680, 215.761 593.500 C 224.356 599.550, 231.695 604.632, 232.071 604.792 C 234.190 605.699, 233.612 599.966, 230.137 585.617 C 227.991 576.752, 225.844 567.557, 225.367 565.182 L 224.500 560.863 214.500 567.082 M 196.174 587.314 C 194.978 588.587, 194 590.586, 194 591.755 C 194 592.925, 193.625 594.114, 193.167 594.397 C 192.710 594.680, 191.785 600.219, 191.112 606.706 C 189.614 621.156, 189.379 623.229, 187.985 634.303 C 187.376 639.145, 187.018 644.249, 187.189 645.645 L 187.500 648.184 190.500 645.586 C 192.150 644.157, 194.219 642.757, 195.098 642.475 C 198.381 641.421, 198.704 637.978, 196.876 623.500 C 195.904 615.800, 195.120 608.600, 195.134 607.500 C 195.185 603.428, 197.743 617.781, 198.381 625.719 C 199.479 639.386, 199.043 639.155, 210.047 631.895 C 215.246 628.465, 222.088 623.684, 225.250 621.271 C 230.849 616.998, 231 616.757, 231 612.058 L 231 607.233 222.750 601.275 C 212.757 594.059, 199.428 585, 198.803 585 C 198.553 585, 197.370 586.042, 196.174 587.314 M 275 602.923 C 271.425 603.915, 265.357 605.800, 261.516 607.113 C 254.970 609.350, 254.466 609.737, 253.488 613.275 C 252.915 615.352, 251.157 618.416, 249.582 620.085 C 246.811 623.021, 246.761 623.253, 248.037 627.309 C 248.762 629.614, 249.896 632.625, 250.557 634 C 251.218 635.375, 252.033 638.075, 252.368 640 C 252.703 641.925, 252.696 642.825, 252.354 642 C 252.012 641.175, 251.235 639.876, 250.629 639.112 C 250.023 638.349, 248.621 634.524, 247.513 630.612 C 245.710 624.242, 245.220 623.468, 242.817 623.190 C 239.437 622.800, 239.799 622.099, 229.892 648.217 C 220.675 672.515, 220.334 673.530, 221.640 672.722 C 222.838 671.982, 224.181 672.923, 225.606 675.500 C 226.516 677.147, 228.457 677.704, 236.606 678.655 C 242.047 679.291, 248.808 679.853, 251.628 679.905 L 256.756 680 258.990 673.750 C 260.219 670.313, 262.299 664.462, 263.612 660.750 C 264.925 657.038, 267.112 650.962, 268.471 647.250 C 280.837 613.465, 284.614 600.901, 282.355 601.060 C 281.885 601.093, 278.575 601.932, 275 602.923 M 283.544 610.500 C 282.585 612.700, 281.438 615.625, 280.993 617 C 280.548 618.375, 277.629 626.700, 274.506 635.500 C 271.384 644.300, 267.473 655.550, 265.816 660.500 C 264.159 665.450, 261.948 671.608, 260.902 674.185 C 258.353 680.466, 258.462 681, 262.300 681 C 266.247 681, 267.988 679.498, 268.035 676.050 L 268.071 673.500 269.406 675.909 L 270.740 678.317 271.781 674.909 C 272.990 670.953, 277.864 650.385, 281.358 634.500 C 286.458 611.313, 287.322 601.826, 283.544 610.500 M 221.940 626.095 C 216.198 629.979, 209.596 634.351, 207.268 635.810 C 204.940 637.270, 202.832 638.995, 202.583 639.645 C 202.202 640.638, 211.679 663.794, 215.025 670.047 C 216.324 672.473, 218.594 672.581, 219.286 670.250 C 219.572 669.288, 223.450 658.917, 227.903 647.205 C 232.356 635.492, 236 625.099, 236 624.110 C 236 623.120, 235.185 621.573, 234.190 620.672 C 232.490 619.134, 231.744 619.464, 221.940 626.095 M 191.805 645.953 C 186.779 649.552, 186.227 650.326, 185.642 654.593 C 184.547 662.582, 184.792 663.764, 187.921 665.613 C 189.528 666.562, 191.665 669.028, 192.669 671.094 C 193.977 673.782, 195.314 675.013, 197.373 675.425 C 201.580 676.266, 205.197 676.127, 204.591 675.147 C 203.517 673.410, 206.742 670.667, 209.858 670.667 C 211.586 670.667, 213 670.488, 213 670.269 C 213 670.051, 211.934 667.538, 210.631 664.686 C 209.327 661.834, 206.775 655.900, 204.958 651.500 C 200.338 640.310, 199.927 640.137, 191.805 645.953 M 92.954 659.786 C 91.723 661.350, 91.205 662.981, 91.637 663.932 C 93.782 668.664, 98.605 684.483, 102.514 699.609 C 111.344 733.776, 113.094 736.996, 117.129 726.500 C 119.357 720.703, 127.879 695.280, 130.537 686.500 C 132.166 681.118, 134 677.341, 134 679.368 C 134 680.842, 125.993 706.582, 122.450 716.500 C 116.779 732.372, 116.893 731.831, 119.082 732.526 C 120.137 732.861, 121 733.603, 121 734.174 C 121 734.746, 121.698 734.946, 122.552 734.618 C 123.442 734.277, 123.843 734.445, 123.493 735.011 C 120.378 740.052, 140.078 721.001, 154.233 705.284 C 160.904 697.878, 160.890 697.583, 153.367 687 C 145.173 675.473, 143.615 674, 139.621 674 C 137.153 674, 136.014 674.507, 135.689 675.750 C 135.394 676.878, 135.191 676.566, 135.116 674.872 C 135.052 673.427, 134.325 671.685, 133.500 671 C 132.675 670.315, 132 668.942, 132 667.949 C 132 665.937, 128.196 664.620, 112 661.024 C 106.775 659.864, 100.808 658.531, 98.741 658.062 C 95.377 657.298, 94.768 657.479, 92.954 659.786 M 71 669.575 C 67.975 672.549, 65.216 674.986, 64.869 674.991 C 64.522 674.996, 60.247 679.837, 55.369 685.750 C 50.491 691.663, 44.547 698.615, 42.160 701.200 C 39.773 703.785, 38.109 706.367, 38.462 706.938 C 38.815 707.510, 38.519 707.775, 37.802 707.528 C 37.086 707.281, 34.745 709.355, 32.600 712.137 C 29.572 716.064, 29.002 717.383, 30.052 718.032 C 30.796 718.492, 31.714 718.677, 32.093 718.443 C 32.471 718.209, 33.505 719.122, 34.391 720.473 C 36.927 724.344, 36.296 731, 33.393 731 C 30.644 731, 32.067 732.922, 35.250 733.508 C 37.038 733.837, 52.645 735.382, 69.933 736.942 C 95.871 739.282, 101.595 739.548, 102.677 738.466 C 103.399 737.744, 105.185 736.213, 106.645 735.064 L 109.302 732.975 106.619 723.737 C 102.999 711.272, 101.748 706.787, 97.493 691 C 92.588 672.803, 90.068 666, 88.236 666 C 87.026 666, 86.865 666.909, 87.394 670.750 C 87.753 673.362, 88.190 677.750, 88.363 680.500 C 88.537 683.250, 89.025 686.737, 89.448 688.250 C 89.943 690.020, 89.834 691, 89.144 691 C 87.165 691, 86.006 687.197, 84.986 677.365 C 83.993 667.788, 83.221 666.048, 79.950 666.015 C 79.098 666.007, 77.973 665.588, 77.450 665.083 C 76.864 664.518, 74.392 666.239, 71 669.575 M 144.502 670.997 C 144.163 671.546, 145.824 674.427, 148.193 677.401 C 150.562 680.374, 154.464 685.551, 156.864 688.904 C 159.264 692.257, 161.514 694.986, 161.864 694.968 C 162.904 694.916, 165.291 692.743, 168.819 688.637 C 171.806 685.160, 172.069 684.361, 171.455 680.637 C 171.079 678.362, 170.651 676.366, 170.505 676.202 C 169.996 675.635, 148.492 670.012, 146.809 670.006 C 145.879 670.003, 144.841 670.449, 144.502 670.997 M 193.542 680.689 C 193.171 682.168, 192.010 684.581, 190.963 686.052 C 189.916 687.523, 189.274 688.941, 189.538 689.204 C 189.801 689.468, 190.481 693.467, 191.049 698.092 C 192.426 709.302, 198.255 731, 199.890 731 C 200.859 731, 204.043 721.437, 208.382 705.500 C 213.073 688.266, 213.734 684, 211.711 684 C 210.862 684, 209.940 683.438, 209.662 682.750 C 209.272 681.783, 209.140 681.795, 209.079 682.801 C 209.033 683.550, 207.622 682.810, 205.750 681.055 C 203.212 678.677, 201.592 678.008, 198.358 678.005 C 194.695 678.001, 194.139 678.311, 193.542 680.689 M 225 683.272 C 223.623 686.236, 223.158 686.479, 219.321 686.240 C 216.037 686.035, 215.042 686.357, 214.678 687.740 C 214.423 688.708, 213.687 691.750, 213.044 694.500 C 211.199 702.383, 210.280 705.815, 207.150 716.500 C 205.540 722, 203.913 727.838, 203.536 729.473 C 202.888 732.280, 202.951 732.358, 204.675 730.867 C 205.679 729.999, 210.100 726.448, 214.500 722.975 C 218.900 719.503, 223.491 715.656, 224.702 714.426 C 227.614 711.470, 237.059 704.304, 244.401 699.481 C 249.350 696.230, 250.748 694.627, 253.057 689.552 C 254.572 686.224, 255.644 683.328, 255.440 683.118 C 255.009 682.674, 232.697 680.098, 229 680.065 C 227.149 680.049, 226.111 680.881, 225 683.272 M 168.265 692.684 L 163.437 698.226 172.469 707.435 C 177.436 712.501, 185.011 720.376, 189.302 724.937 C 193.593 729.498, 197.243 733.065, 197.413 732.864 C 197.582 732.664, 196.419 728, 194.829 722.500 C 192.254 713.597, 190.112 703.569, 188.522 692.974 C 188.011 689.565, 187.866 689.460, 184.175 689.812 C 182.075 690.012, 178.723 689.493, 176.725 688.659 L 173.094 687.141 168.265 692.684 M 259.973 690.653 C 255.098 693.913, 252.027 697.389, 250.909 700.915 C 249.964 703.894, 240.714 723.157, 237.100 729.672 C 235.274 732.964, 220 766.931, 220 767.700 C 220 769.614, 229.629 753.260, 234.875 742.437 C 238.091 735.803, 242.360 728.045, 244.361 725.197 C 246.363 722.350, 248 719.807, 248 719.545 C 248 719.283, 249.316 716.995, 250.924 714.459 C 252.532 711.923, 255.012 706.941, 256.434 703.388 C 257.857 699.835, 260.147 695.144, 261.523 692.964 C 264.233 688.671, 263.831 688.073, 259.973 690.653 M 240.993 704.073 C 232.068 710.221, 229.665 712.085, 224.500 716.867 C 222.300 718.904, 216.838 723.622, 212.362 727.351 C 201.328 736.545, 201.312 736.691, 209.534 753.295 C 213.116 760.529, 216.394 766.794, 216.818 767.218 C 217.242 767.642, 220.239 762.029, 223.479 754.744 C 226.718 747.460, 233.150 733.850, 237.773 724.500 C 245.932 707.995, 249.379 700.046, 248.682 699.349 C 248.495 699.162, 245.035 701.288, 240.993 704.073 M 143.906 719.311 C 131.859 731.727, 125.459 739.040, 125.731 740.080 C 126.050 741.298, 127.155 741.608, 130.325 741.367 C 132.621 741.192, 143.050 740.573, 153.500 739.991 C 170.643 739.037, 183.707 737.849, 192.732 736.426 C 195.704 735.957, 195.865 735.746, 194.732 733.812 C 194.055 732.655, 190.420 728.511, 186.655 724.604 C 182.890 720.697, 178.569 716.150, 177.053 714.500 C 175.537 712.850, 171.642 708.945, 168.398 705.823 L 162.500 700.146 143.906 719.311 M 24.643 738.034 C 24.309 739.703, 22.438 742.533, 20.485 744.322 C 16.622 747.861, 17.027 746.257, 13.501 772 C 12.635 778.325, 11.668 784.962, 11.352 786.750 C 10.905 789.278, 11.125 790, 12.343 790 C 13.204 790, 15.017 791.108, 16.370 792.461 L 18.832 794.923 23.166 792.485 C 25.550 791.144, 34.475 786.489, 43 782.141 C 56.834 775.086, 94.829 753.527, 97.563 751.182 C 98.148 750.681, 99.610 749.744, 100.813 749.100 C 103.013 747.922, 103.606 745.500, 102.225 743.329 C 101.763 742.603, 94.259 741.546, 82.490 740.549 C 72.045 739.664, 55.318 738.053, 45.317 736.970 C 35.317 735.886, 26.711 735, 26.192 735 C 25.674 735, 24.977 736.365, 24.643 738.034 M 185.913 739.420 C 185.517 739.817, 180.179 740.263, 141.835 743.106 L 126.170 744.268 124.568 748.460 C 123.121 752.249, 123.114 753.079, 124.494 757.076 C 126.561 763.063, 137.634 808.892, 138.973 817 C 140.625 827.008, 140.936 828, 142.423 828 C 144.240 828, 154.530 811.760, 168.719 786.500 C 184.017 759.265, 187.692 752.888, 191.650 746.719 C 194.042 742.989, 196 739.727, 196 739.469 C 196 738.887, 186.492 738.841, 185.913 739.420 M 196.661 742.823 C 195.747 743.832, 195 744.990, 195 745.395 C 195 745.801, 193.922 747.566, 192.605 749.317 C 191.288 751.068, 187.635 757.225, 184.488 763 C 177.821 775.234, 170.495 788.225, 167.853 792.500 C 163.167 800.081, 147 827.291, 147 827.596 C 147 828.270, 150.528 826.584, 151.849 825.278 C 152.592 824.544, 158.981 819.401, 166.047 813.849 C 180.332 802.625, 180.737 802.048, 186.110 785.293 C 187.837 779.907, 190.540 771.598, 192.118 766.829 C 195.554 756.443, 197.999 746.332, 197.254 745.587 C 196.958 745.291, 197.293 744.352, 198 743.500 C 199.858 741.261, 198.634 740.642, 196.661 742.823 M 200.010 741 C 199.757 746.991, 192.793 772.324, 186.814 789 C 183.368 798.614, 183.390 798.397, 185.998 797.001 C 187.258 796.327, 190.136 794.100, 192.394 792.053 C 196.355 788.463, 204.432 782.074, 208.861 779.029 C 210.037 778.220, 211 776.997, 211 776.311 C 211 775.558, 211.660 775.316, 212.664 775.701 C 213.731 776.111, 214.085 775.947, 213.651 775.245 C 213.279 774.643, 213.470 773.063, 214.075 771.735 C 215.034 769.630, 214.337 767.666, 208.632 756.410 C 202.365 744.044, 200.055 739.916, 200.010 741 M 99.721 752.415 C 97.787 753.727, 90.871 757.830, 84.353 761.533 C 77.834 765.237, 70.475 769.519, 68 771.050 C 65.525 772.580, 56.817 777.252, 48.648 781.432 C 24.247 793.917, 20.002 796.636, 19.986 799.794 C 19.979 801.282, 19.717 803.453, 19.404 804.619 C 18.932 806.378, 20.037 807.536, 25.918 811.445 C 29.813 814.035, 33 816.360, 33 816.612 C 33 817.214, 28.912 815.087, 27 813.490 C 26.175 812.801, 24.396 811.899, 23.047 811.486 C 21.697 811.074, 19.978 810.121, 19.225 809.368 C 17.480 807.623, 16.541 807.643, 15.036 809.456 C 13.729 811.031, 14.544 813.400, 16.069 812.457 C 16.581 812.141, 17 812.359, 17 812.941 C 17 813.523, 16.634 814, 16.187 814 C 14.915 814, 14.789 822.534, 15.945 830.375 C 16.523 834.294, 17.913 843.800, 19.035 851.500 C 20.157 859.200, 21.292 866.905, 21.559 868.622 C 21.972 871.290, 22.732 871.990, 26.771 873.432 C 29.372 874.360, 32.281 875.542, 33.236 876.060 C 39.123 879.248, 43.559 875.506, 51.389 860.747 C 55.006 853.928, 58.652 846.405, 59.490 844.028 L 61.015 839.706 56.757 835.722 C 54.416 833.530, 53.464 832.236, 54.642 832.846 C 55.820 833.456, 57.923 835.308, 59.315 836.963 L 61.846 839.970 64.423 835.359 C 65.840 832.823, 67 830.556, 67 830.321 C 67 830.085, 75.550 812.640, 86 791.552 C 96.450 770.465, 105 752.740, 105 752.165 C 105 750.012, 103.131 750.101, 99.721 752.415 M 85.527 797.457 C 73.687 821.358, 64 841.383, 64 841.957 C 64 842.531, 65.463 843.032, 67.250 843.070 L 70.500 843.141 66.502 844.604 C 61.338 846.494, 61.166 846.701, 54.931 858.500 C 52.025 864, 48.596 870.188, 47.311 872.250 L 44.975 876 47.865 876 C 49.454 876, 53.934 875.282, 57.819 874.405 C 64.214 872.961, 64.941 872.544, 65.498 870.008 C 66.380 865.994, 69.247 863.839, 74.492 863.248 C 77.008 862.964, 78.839 862.506, 78.562 862.229 C 78.286 861.952, 78.883 860.550, 79.890 859.113 C 83.334 854.198, 87.996 844.502, 87.998 842.250 C 87.999 841.013, 88.348 840, 88.773 840 C 89.198 840, 90.431 838.313, 91.513 836.250 C 92.595 834.188, 93.747 832.275, 94.071 832 C 94.396 831.725, 96.256 828.575, 98.203 825 C 107.252 808.392, 107.809 807.476, 108.462 808.129 C 108.717 808.383, 108.329 809.696, 107.600 811.046 C 106.871 812.396, 104.574 816.650, 102.494 820.500 C 100.414 824.350, 98.155 828.175, 97.473 829 C 96.084 830.681, 92 838.566, 92 839.567 C 92 839.923, 92.698 839.946, 93.552 839.618 C 94.496 839.256, 94.848 839.437, 94.451 840.080 C 94.092 840.661, 93.168 840.895, 92.399 840.600 C 91.615 840.299, 91 840.672, 91 841.448 C 91 842.210, 90.654 842.983, 90.232 843.167 C 89.809 843.350, 87.946 846.650, 86.092 850.500 C 84.238 854.350, 82.169 858.175, 81.494 859 C 80.818 859.825, 80.281 861.232, 80.299 862.127 C 80.329 863.558, 80.884 863.497, 84.917 861.622 C 87.438 860.450, 91.075 858.521, 93 857.337 C 94.925 856.153, 99.650 853.655, 103.500 851.788 C 111.324 847.992, 120.238 842.958, 121 841.906 C 121.275 841.526, 124.306 839.791, 127.735 838.051 C 137.974 832.855, 138.418 831.691, 132.445 825.718 C 130.950 824.223, 130.105 823, 130.566 823 C 131.027 823, 132.889 824.438, 134.702 826.196 C 138.232 829.617, 138.507 829.353, 138.036 823 C 137.724 818.777, 128.182 779.069, 125.061 769 C 123.441 763.775, 121.865 758.299, 121.559 756.830 C 121.030 754.295, 120.822 754.210, 117.420 755.150 C 114.984 755.822, 112.855 755.796, 110.769 755.069 C 109.082 754.481, 107.556 754, 107.378 754 C 107.200 754, 97.367 773.556, 85.527 797.457 M 175 808.807 C 175 809.251, 172.188 811.702, 168.750 814.254 C 165.313 816.805, 161.326 819.930, 159.892 821.197 C 150.005 829.928, 149.161 830.898, 149.688 832.913 C 150.611 836.443, 149.100 839.897, 145.914 841.545 C 143.613 842.734, 142.520 842.847, 141.500 842 C 139.726 840.527, 135.965 844.535, 123.670 861 L 114.337 873.500 117.823 873.820 C 123.586 874.348, 125.675 873.376, 126.383 869.836 C 126.986 866.821, 127.097 866.751, 128.422 868.562 C 129.192 869.616, 129.583 870.865, 129.291 871.339 C 128.083 873.293, 132.916 869.669, 139 864.059 C 142.575 860.762, 148.933 855.237, 153.128 851.782 C 160.301 845.875, 160.726 845.304, 160.242 842.215 C 159.778 839.256, 160.039 838.811, 162.872 837.742 C 165.615 836.707, 166.458 835.401, 169.466 827.528 C 176.030 810.349, 176.804 808, 175.904 808 C 175.407 808, 175 808.363, 175 808.807 M 129 839.678 C 126.525 841.073, 122.925 843.244, 121 844.504 C 119.075 845.764, 112.550 849.487, 106.500 852.778 C 85.050 864.447, 83.507 865.449, 83.387 867.792 C 83.324 869.007, 83.672 870, 84.159 870 C 85.687 870, 101.247 861.915, 107 858.132 C 110.025 856.143, 116.116 851.812, 120.535 848.508 C 124.955 845.204, 129.768 841.874, 131.232 841.109 C 133.699 839.821, 135.853 836.909, 134.219 837.072 C 133.823 837.111, 131.475 838.284, 129 839.678 M 128.500 845.858 C 124.650 848.474, 117.859 853.136, 113.408 856.218 C 108.958 859.301, 100.858 864.173, 95.408 867.046 C 89.959 869.919, 85.115 872.616, 84.644 873.041 C 84.173 873.465, 89.813 873.868, 97.178 873.937 L 110.568 874.061 113.097 871.280 C 114.488 869.751, 119.156 863.775, 123.471 858 C 127.786 852.225, 132.683 846.038, 134.354 844.250 C 138.551 839.761, 136.740 840.258, 128.500 845.858 M 87.571 875.812 C 84.126 876.030, 81.769 876.858, 79.744 878.562 C 78.150 879.903, 76.238 881, 75.494 881 C 74.661 881, 73.744 883.015, 73.106 886.250 C 71.509 894.346, 70 906.664, 70 911.608 C 70 915.551, 70.204 915.960, 71.750 915.125 C 75.347 913.181, 108.923 877.896, 108.980 876 C 108.997 875.446, 95.263 875.325, 87.571 875.812 M 112.916 875.800 C 112.137 875.965, 109.925 878.190, 108 880.745 C 106.075 883.299, 97.447 892.528, 88.826 901.252 C 80.206 909.977, 73.456 916.977, 73.826 916.808 C 77.768 915.006, 113.532 886.256, 119.347 880.214 L 123.194 876.217 118.763 875.858 C 116.326 875.661, 113.694 875.635, 112.916 875.800 M 58.311 881.943 C 52.622 884.424, 49.650 886.350, 48.486 888.310 C 47.567 889.856, 45.282 891.851, 43.408 892.745 C 40.193 894.278, 38.881 896, 40.928 896 C 41.439 896, 46.764 900.702, 52.762 906.450 C 61.460 914.784, 64.102 916.786, 65.813 916.339 C 67.213 915.972, 67.924 915.034, 67.859 913.639 C 67.750 911.321, 70.513 889.466, 71.559 884.373 C 72.121 881.635, 71.845 881.069, 69.334 879.816 C 66.661 878.483, 65.915 878.627, 58.311 881.943" stroke="none" fill="#f9f6f6" fill-rule="evenodd"/>
</svg>